<?xml version="1.0" encoding="UTF-8"?><svg id="a" xmlns="http://www.w3.org/2000/svg" viewBox="0 0 1921 1019.09"><path d="M480.94,194.46c3.87,2.82,7.95,5.36,12.09,7.74,4.15,2.38,8.4,4.57,12.73,6.56,8.68,3.95,17.73,7.08,27.01,8.87,9.26,1.82,18.78,2.19,27.92,.56,9.18-1.76,18.22-4.83,27.08-8.18,17.7-6.86,34.85-15.22,51.17-24.86,16.28-9.65,31.84-20.62,45.34-33.46,6.72-6.42,13.09-13.16,18.27-20.62,2.58-3.73,4.85-7.63,6.61-11.69,1.78-4.05,3.12-8.24,3.77-12.5,.38-2.12,.48-4.26,.54-6.39-.06-2.07-.14-4.14-.62-5.98-.44-1.85-1.11-3.53-2.04-4.93-.92-1.4-2.13-2.48-3.59-3.33-2.92-1.69-6.93-2.3-11.1-2.01-2.08,.08-4.23,.48-6.36,.89-2.14,.5-4.29,1.05-6.41,1.77-8.53,2.83-16.77,7.17-24.57,12.17-7.82,5-15.19,10.78-22.19,16.98-13.96,12.46-26.26,26.84-36.68,42.43-2.63,3.88-5.06,7.9-7.45,11.93-2.32,4.08-4.6,8.17-6.67,12.38-4.21,8.37-7.84,17.03-10.91,25.88-3.09,8.84-5.56,17.89-7.39,27.07-1.81,9.18-3.2,18.47-3.2,27.51,.03,4.5,.4,8.95,1.45,13,.49,2.05,1.25,3.9,2.1,5.63,.93,1.66,2.01,3.15,3.29,4.34,1.32,1.15,2.81,2.06,4.49,2.73,1.73,.59,3.6,.98,5.6,1.12,4.02,.24,8.36-.41,12.67-1.49,8.65-2.22,17.19-6.11,25.45-10.44,8.28-4.36,16.33-9.31,24.22-14.53,15.78-10.47,30.94-22.02,45.74-34.01,7.4-6,14.7-12.14,21.94-18.37l5.42-4.69,2.71-2.36c.92-.8,1.68-1.48,2.5-2.26,3.19-3.05,6.03-6.44,8.38-10.13,1.19-1.84,2.24-3.75,3.17-5.72,.93-1.96,1.71-3.95,2.16-5.79,.22-.91,.36-1.78,.38-2.5,.04-.74-.09-1.25-.18-1.52-.13-.24-.14-.29-.39-.46-.23-.17-.77-.4-1.5-.54-.36-.07-.77-.12-1.2-.16l-.67-.03c-.18,0-.15,.01-.24,0-.35,.03-1.05,.23-1.8,.59-1.55,.73-3.3,1.95-4.98,3.3-3.38,2.75-6.64,6.05-9.77,9.47-6.27,6.88-12.13,14.35-17.81,21.93-5.68,7.6-11.17,15.38-16.55,23.25-5.38,7.87-10.64,15.83-15.81,23.86-2.59,4.01-5.15,8.04-7.7,12.08-2.55,4.02-4.94,8-7.22,12.11-4.55,8.2-8.58,16.68-12.01,25.39-3.5,8.97-7.29,17.94-11.35,26.72-4.07,8.8-8.41,17.48-13.12,25.98-4.71,8.5-9.72,16.86-15.25,24.92-5.52,8.06-11.48,15.88-18.11,23.19-6.67,7.27-13.95,14.13-22.24,19.88-2.1,1.4-4.17,2.83-6.4,4.06-2.16,1.33-4.46,2.43-6.75,3.57-4.66,2.08-9.48,3.98-14.57,5.03l-1.89,.45-1.81,.34-3.61,.66c-2.42,.37-4.83,.81-7.27,1.11-4.86,.7-9.76,1.16-14.67,1.49-9.83,.61-19.78,.47-29.66-.83-9.88-1.26-19.7-3.78-29.02-7.7-9.29-3.99-18.02-9.5-25.5-16.4-7.44-6.93-13.71-15.09-18.47-23.95-4.87-8.82-8.33-18.39-10.48-28.2-1.06-4.91-1.75-9.9-2.13-14.9-.39-5-.43-10.03-.11-15.03,.31-5,.91-9.99,1.86-14.9,.93-4.87,2.11-9.68,3.53-14.45,2.85-9.52,6.72-18.82,11.91-27.46,2.59-4.32,5.52-8.46,8.78-12.35,3.27-3.88,6.89-7.49,10.82-10.74,3.92-3.26,8.15-6.15,12.58-8.66,4.45-2.49,9.13-4.52,13.91-6.21,4.77-1.72,9.7-2.87,14.64-3.83l3.72-.62c1.24-.21,2.49-.31,3.73-.46,2.49-.34,4.98-.45,7.47-.62,9.84-.4,19.68-.26,29.53,.81,9.84,1.11,19.65,3.25,29.13,6.63,1.2,.37,2.36,.88,3.53,1.36l3.5,1.44c2.32,1.01,4.55,2.23,6.82,3.36l3.27,1.97c1.08,.68,2.2,1.28,3.22,2.07,2.05,1.52,4.18,2.95,6.06,4.69l2.88,2.54,2.69,2.76,1.34,1.38c.43,.48,.83,.98,1.24,1.47l2.45,2.96c.76,1.03,1.48,2.09,2.22,3.14l1.1,1.57c.35,.54,.66,1.1,.99,1.65l1.94,3.31,1.68,3.45c.27,.58,.57,1.14,.82,1.73l.71,1.78c.45,1.19,.98,2.36,1.37,3.57,.76,2.43,1.57,4.85,2.07,7.34,.65,2.46,.95,4.98,1.36,7.48,.13,1.26,.23,2.52,.34,3.78,.05,.63,.13,1.26,.14,1.89l.04,1.89c.18,5.05-.27,10.09-1.1,15.03-.79,4.96-2.2,9.8-3.95,14.49-1.72,4.7-4.05,9.18-6.73,13.4-1.35,2.11-2.78,4.16-4.37,6.09-1.55,1.96-3.26,3.8-5.05,5.57-1.8,1.76-3.73,3.38-5.75,4.89-2.04,1.49-4.19,2.82-6.44,3.98-4.49,2.32-9.41,3.84-14.42,4.44-10.04,1.2-20.37-1.53-28.43-7.35-4.03-2.91-7.51-6.59-10.03-10.86-2.53-4.25-4.02-9.15-4.1-14.08-.1-4.93,1.25-9.8,3.6-14.03,1.17-2.12,2.56-4.11,4.12-5.94,1.57-1.83,3.29-3.51,5.1-5.08-1.73,1.66-3.36,3.42-4.82,5.31-1.46,1.89-2.73,3.92-3.77,6.05-2.09,4.25-3.14,8.99-2.82,13.65,.3,4.66,1.92,9.17,4.49,13.02,2.55,3.87,5.97,7.14,9.83,9.65,7.73,5.06,17.3,7.1,26.27,5.61,4.48-.74,8.8-2.29,12.73-4.54,1.96-1.13,3.84-2.41,5.62-3.83,1.76-1.44,3.44-2.98,5-4.64,1.55-1.68,3.03-3.42,4.37-5.28,1.38-1.83,2.61-3.78,3.75-5.76,2.28-3.96,4.26-8.12,5.65-12.49,1.43-4.34,2.55-8.8,3.08-13.34,.58-4.52,.8-9.1,.46-13.63l-.1-1.7c-.04-.57-.14-1.13-.2-1.69l-.44-3.37c-.47-2.21-.81-4.45-1.48-6.61-.53-2.19-1.34-4.3-2.08-6.41-.38-1.05-.89-2.06-1.33-3.09l-.68-1.54c-.23-.51-.52-.99-.78-1.49l-1.59-2.95-1.82-2.82c-.31-.47-.59-.94-.91-1.4l-1.02-1.33c-.68-.88-1.34-1.78-2.04-2.65l-2.24-2.49c-.38-.41-.73-.84-1.12-1.24l-1.22-1.15-2.42-2.3-2.61-2.11c-1.67-1.48-3.61-2.64-5.4-3.96-.88-.68-1.91-1.18-2.85-1.79l-2.88-1.75-3.02-1.53c-1.02-.49-1.97-1.09-3.03-1.51l-3.13-1.34c-1.04-.45-2.07-.92-3.17-1.26-8.55-3.16-17.61-5.08-26.81-6.14-9.21-1-18.58-1.13-27.89-.76-2.29,.17-4.59,.26-6.85,.57-1.13,.14-2.28,.23-3.4,.42l-3.37,.56c-4.47,.87-8.9,1.89-13.15,3.43-4.25,1.5-8.4,3.29-12.32,5.49-3.91,2.21-7.62,4.75-11.07,7.62-6.93,5.71-12.75,12.76-17.42,20.56-4.68,7.8-8.25,16.33-10.9,25.17-1.32,4.42-2.43,8.93-3.29,13.47-.87,4.49-1.41,9.05-1.7,13.61-.29,4.56-.26,9.14,.1,13.7,.35,4.55,.97,9.08,1.93,13.54,1.96,8.9,5.08,17.55,9.48,25.51,4.31,8.03,9.9,15.25,16.48,21.39,6.62,6.1,14.33,10.97,22.64,14.55,8.35,3.51,17.27,5.82,26.4,6.98,9.13,1.2,18.44,1.35,27.73,.77,4.65-.32,9.3-.75,13.93-1.42,2.32-.29,4.63-.71,6.94-1.06l3.46-.64,1.73-.32,1.61-.39c4.32-.88,8.47-2.53,12.55-4.34,2-1,4.03-1.96,5.95-3.15,1.98-1.08,3.84-2.38,5.73-3.64,7.48-5.19,14.26-11.54,20.54-18.38,6.25-6.89,11.94-14.36,17.25-22.1,5.32-7.75,10.18-15.85,14.76-24.12,4.58-8.27,8.82-16.74,12.8-25.34,3.99-8.61,7.66-17.31,11.13-26.2,3.6-9.12,7.82-17.99,12.57-26.56,2.36-4.27,4.92-8.52,7.5-12.59,2.56-4.07,5.15-8.13,7.75-12.17,5.22-8.09,10.52-16.12,15.96-24.08,5.44-7.96,11-15.84,16.8-23.6,5.81-7.75,11.8-15.39,18.44-22.69,3.34-3.64,6.82-7.2,10.87-10.51,2.06-1.64,4.23-3.24,7.01-4.57,1.42-.65,3.01-1.26,5.05-1.48,.5-.04,1.13-.06,1.55-.05l1.13,.06c.77,.07,1.55,.16,2.36,.32,1.62,.33,3.4,.87,5.15,2.06,.87,.56,1.7,1.34,2.41,2.19,.71,.87,1.26,1.85,1.66,2.83,.77,1.97,.96,3.88,.9,5.54-.06,1.67-.32,3.18-.66,4.6-.71,2.81-1.72,5.3-2.83,7.67-1.12,2.36-2.38,4.66-3.79,6.85-2.81,4.39-6.17,8.4-9.91,11.97-.92,.87-1.94,1.79-2.83,2.56l-2.72,2.36-5.46,4.72c-7.29,6.28-14.67,12.48-22.16,18.55-14.98,12.14-30.35,23.86-46.53,34.59-8.1,5.35-16.4,10.46-25.08,15.03-8.69,4.55-17.71,8.72-27.65,11.29-4.98,1.24-10.21,2.1-15.79,1.77-2.79-.19-5.64-.74-8.44-1.73-2.79-1.08-5.45-2.68-7.72-4.7-2.25-2.07-3.99-4.51-5.39-7.04-1.28-2.55-2.3-5.18-2.94-7.79-1.35-5.24-1.74-10.42-1.78-15.49,0-10.15,1.5-19.91,3.39-29.52,1.92-9.62,4.51-19.11,7.74-28.37,3.21-9.26,7.01-18.32,11.41-27.07,2.16-4.4,4.54-8.68,6.96-12.93,2.5-4.21,5.04-8.4,7.78-12.45,10.88-16.28,23.7-31.27,38.34-44.35,7.35-6.51,15.11-12.59,23.44-17.93,8.33-5.32,17.17-10.03,26.85-13.25,4.84-1.6,9.91-2.81,15.3-3.14,2.7-.14,5.46-.13,8.31,.39,2.83,.49,5.72,1.4,8.42,2.96,2.69,1.54,5.13,3.77,6.85,6.37,1.74,2.6,2.82,5.45,3.49,8.26,.71,2.82,.82,5.58,.88,8.29-.06,2.66-.2,5.32-.66,7.92-.8,5.23-2.42,10.24-4.49,14.96-2.08,4.72-4.6,9.17-7.44,13.35-5.67,8.37-12.4,15.79-19.75,22.37-7.37,6.57-15.24,12.43-23.33,17.87-8.1,5.43-16.46,10.4-25,15-8.54,4.6-17.25,8.84-26.12,12.72-8.86,3.89-17.88,7.42-27.07,10.47-9.2,3.02-18.52,5.74-28.27,7.16-9.83,1.31-19.76,.44-29.2-1.86-9.46-2.32-18.48-5.97-27.04-10.38-8.54-4.46-16.7-9.63-24.17-15.64Z" style="fill:#1e1b1c;"/><path d="M712.83,268.84c2.79-3.03,5.83-5.8,9.02-8.41,1.61-1.29,3.24-2.56,4.94-3.76,.85-.6,1.7-1.21,2.58-1.77,.88-.57,1.91-.78,2.88-1.1,3.87-1.44,7.84-2.74,12.05-3.63,4.21-.86,8.68-1.44,13.61-.66,2.44,.4,5.05,1.28,7.41,2.84,2.39,1.53,4.32,3.85,5.53,6.26,1.24,2.42,1.85,4.91,2.16,7.27,.3,2.36,.34,4.66,.19,6.85-.25,4.42-1.12,8.54-2.13,12.57-1.03,4.02-2.29,7.91-3.66,11.74l-.15,.42-.24,.42c-2.91,5-5.77,10.15-8.53,15.29-2.76,5.16-5.43,10.35-7.97,15.59-1.27,2.62-2.49,5.25-3.68,7.89-.57,1.33-1.22,2.62-1.62,4.01-.23,.68-.66,1.28-1.08,1.89-.41,.6-.85,1.21-1.24,1.82-1.65,2.44-3.24,4.9-4.77,7.42-1.49,2.55-2.93,5.11-4,7.99-.63-3.02-.63-6.22-.45-9.32,.17-3.13,.57-6.23,1.09-9.28,.12-.77,.27-1.52,.41-2.29,.13-.77,.27-1.53,.62-2.2,.73-1.33,1.28-2.74,1.91-4.11,1.23-2.75,2.5-5.47,3.81-8.16,2.61-5.39,5.34-10.7,8.16-15.95,2.82-5.26,5.69-10.44,8.73-15.65l-.39,.84c1.29-3.59,2.45-7.2,3.38-10.82,.91-3.6,1.65-7.24,1.83-10.69,.23-3.44-.13-6.77-1.26-8.96-.57-1.09-1.24-1.9-2.18-2.5-.93-.61-2.11-1.08-3.55-1.31-2.87-.48-6.38-.15-9.86,.58-3.5,.75-7.05,1.86-10.55,3.22-.86,.38-1.66,.9-2.61,1.08l-2.86,.54c-1.91,.39-3.84,.78-5.77,1.23-3.87,.88-7.79,1.81-11.77,2.82Z" style="fill:#1e1b1c;"/><path d="M761.57,297.07c.25-1.89,.66-3.73,1.18-5.48,.5-1.77,1.11-3.49,1.78-5.17,2.43-2.28,4.81-4.61,7.35-6.79,5.05-4.37,10.47-8.43,16.43-11.83,2.99-1.69,6.12-3.21,9.42-4.47,3.32-1.22,6.82-2.16,10.47-2.63,3.64-.47,7.47-.44,11.21,.37,.87,.5,1.67,1.17,2.45,1.78l1.13,.95c.35,.35,.69,.72,1.02,1.08,.65,.75,1.31,1.39,1.84,2.22,.52,.83,1.04,1.6,1.47,2.42-1.94,.08-3.63,.05-5.31,.33-.41,.06-.82,.12-1.2,.16l-1.18,.27c-.77,.19-1.48,.29-2.22,.58-2.55-.56-5.25-.59-7.97-.24-2.73,.35-5.48,1.07-8.2,2.07-2.71,1.04-5.38,2.33-7.99,3.8-5.21,2.97-10.16,6.65-14.82,10.69-2.31,2.04-4.63,4.11-6.75,6.38-3.2,1.19-6.49,2.39-10.12,3.51Z" style="fill:#1e1b1c;"/><path d="M549.61,625.61c3.09-3.21,6.45-6.16,9.97-8.92,1.77-1.37,3.57-2.72,5.43-3.98,.93-.63,1.86-1.28,2.83-1.88,.96-.6,2.07-.85,3.13-1.2,4.2-1.56,8.52-2.98,13.08-3.94,4.56-.93,9.39-1.56,14.67-.71,2.62,.42,5.4,1.37,7.91,3.03,2.54,1.63,4.59,4.09,5.88,6.66,1.32,2.58,1.97,5.24,2.31,7.78,.32,2.54,.37,5.01,.2,7.39-.27,4.78-1.21,9.26-2.31,13.63-1.12,4.37-2.49,8.6-3.98,12.76l-.15,.42-.24,.42c-3.18,5.46-6.3,11.08-9.31,16.7-3.01,5.63-5.93,11.3-8.7,17.02-1.39,2.86-2.72,5.73-4.02,8.62-.63,1.45-1.32,2.87-1.78,4.38-.26,.75-.71,1.41-1.15,2.07-.44,.67-.9,1.33-1.32,2.01-1.75,2.69-3.43,5.4-5.04,8.18-1.56,2.8-3.07,5.63-4.16,8.78-.61-3.29-.55-6.75-.29-10.11,.25-3.38,.73-6.74,1.36-10.04,.15-.83,.32-1.65,.48-2.48,.16-.83,.32-1.66,.7-2.39,.79-1.46,1.39-2.98,2.07-4.48,1.34-2.99,2.72-5.96,4.15-8.89,2.85-5.87,5.82-11.66,8.89-17.39,3.08-5.74,6.21-11.38,9.51-17.05l-.39,.84c1.41-3.93,2.68-7.88,3.7-11.84,1-3.95,1.81-7.93,2.02-11.75,.25-3.79-.13-7.5-1.43-10.01-.65-1.25-1.44-2.21-2.53-2.9-1.08-.71-2.44-1.24-4.05-1.5-3.23-.54-7.1-.17-10.93,.64-3.85,.82-7.74,2.05-11.57,3.53-.94,.41-1.83,.96-2.86,1.17l-3.1,.65c-2.07,.46-4.17,.93-6.26,1.46-4.19,1.03-8.43,2.13-12.71,3.33Z" style="fill:#1e1b1c;"/><path d="M598.08,665.04c.27-2.14,.71-4.22,1.26-6.24,.53-2.03,1.19-4.01,1.9-5.96,2.6-2.91,5.15-5.86,7.9-8.65,5.47-5.59,11.33-10.9,17.95-15.45,3.3-2.28,6.79-4.38,10.56-6.1,3.76-1.73,7.77-3.13,12.06-3.87,4.26-.77,8.85-.71,13.24,.32,1.03,.55,1.97,1.29,2.87,2l1.32,1.08c.41,.39,.8,.82,1.17,1.24l1.1,1.24c.18,.21,.36,.4,.52,.62l.47,.68c.59,.94,1.17,1.83,1.66,2.76-2.18-.21-4.1-.53-6.04-.44h-1.39l-1.37,.17c-.89,.1-1.72,.15-2.57,.41-2.98-.69-6.14-.79-9.33-.2-6.39,1.14-12.77,4.29-18.61,8.36-5.88,4.03-11.33,8.94-16.44,14.18-2.54,2.64-5.06,5.33-7.35,8.21-3.46,1.9-7.01,3.81-10.88,5.68Z" style="fill:#1e1b1c;"/><path d="M934.8,263.12c-10.99-1.17-21.77,.17-31.37,3.48-9.9,1.84-19.15,6.42-26.86,12.96-3.86,3.27-7.38,6.99-10.54,11.04-.78,1.02-1.51,2.08-2.27,3.12-.78,1.02-1.47,2.12-2.16,3.22-.68,1.1-1.42,2.16-2.05,3.3l-1.91,3.41c-.66,1.12-1.2,2.32-1.78,3.48-.57,1.17-1.17,2.35-1.71,3.52-.49,1.17-1.06,2.33-1.47,3.51l-.66,1.76-.56,1.75c-.69,2.32-1.18,4.64-1.23,6.7-.05,2.06,.35,3.73,1.08,4.71,.35,.52,.87,.9,1.46,1.3,.37,.14,.66,.37,1.11,.49l.62,.22,.7,.16c1.88,.44,4.19,.47,6.55,.24,4.75-.49,9.72-1.91,14.53-3.71,9.66-3.68,18.92-8.92,27.4-15.05,4.22-3.1,8.28-6.42,11.99-10.03,1.88-1.79,3.62-3.68,5.31-5.61,.82-.98,1.67-1.94,2.39-2.98,.38-.51,.71-1.05,1.06-1.57,.35-.52,.77-.99,1.19-1.47,3.41-3.72,6.4-7.87,8.25-12.55,1.88-4.65,2.45-10,.95-15.38Zm0,0l1.15,1.73c.38,.63,.65,1.25,.99,1.89,.59,1.29,1.11,2.65,1.46,4.07,.71,2.83,.9,5.84,.69,8.83-.19,3-.87,5.94-1.8,8.78-.93,2.84-2.08,5.6-3.42,8.25-.68,1.31-1.6,2.48-2.57,3.57-.92,1.13-1.83,2.26-2.77,3.36-1.9,2.17-3.86,4.29-5.93,6.26-4.1,3.99-8.5,7.59-13.06,10.94-9.18,6.63-19.04,12.23-29.77,16.32-5.39,2-10.97,3.66-17.08,4.3-3.06,.29-6.27,.33-9.72-.43l-1.29-.31c-.44-.14-.88-.3-1.31-.45-.87-.27-1.75-.77-2.61-1.2-1.7-1.04-3.36-2.38-4.58-4.11-1.2-1.7-2.06-3.63-2.45-5.47-.1-.46-.24-.94-.29-1.38l-.15-1.35c-.13-.92-.07-1.74-.08-2.61,.1-3.4,.81-6.44,1.66-9.34l.69-2.14,.78-2.07c.5-1.4,1.12-2.69,1.69-4.03,.6-1.31,1.24-2.56,1.86-3.84,.63-1.27,1.22-2.56,1.94-3.79l2.09-3.73c.69-1.24,1.51-2.43,2.27-3.64,.76-1.21,1.53-2.42,2.4-3.57,.85-1.16,1.67-2.34,2.54-3.48,3.55-4.54,7.55-8.79,12.01-12.56,4.45-3.77,9.39-7.03,14.68-9.59,2.65-1.27,5.37-2.41,8.16-3.32l2.1-.68c.71-.21,1.42-.39,2.12-.61,.71-.21,1.4-.48,2.11-.63,.72-.16,1.44-.3,2.17-.37,5.89-.48,11.75-.06,17.37,1,5.6,1.12,11.05,2.79,15.96,5.43Z" style="fill:#1e1b1c;"/><path d="M934.8,263.12c-3.27,5.02-6.19,9.92-8.87,14.83-.34,.6-.89,1.01-1.38,1.47-.49,.46-.92,.98-1.37,1.48-.88,1.02-1.75,2.05-2.59,3.1-1.68,2.1-3.29,4.25-4.77,6.48-5.97,8.87-10.27,18.78-11.74,29.1-.18,1.28-.32,2.59-.42,3.87-.05,1.26-.17,2.54-.1,3.78,0,2.5,.33,4.92,.94,7.16,1.18,4.51,3.72,8.19,7.44,10.42,3.68,2.26,8.49,3.12,13.11,2.53,2.39,.44,4.96,.57,7.54,.23,2.59-.34,5.2-1.12,7.57-2.97-.32,1.47-1.04,2.88-1.92,4.24-.95,1.26-2.05,2.51-3.3,3.56-2.49,2.17-5.48,3.73-8.68,4.87-.4,.13-.81,.25-1.23,.25-.42,.02-.84-.02-1.25-.02-.83,.02-1.66,0-2.49,0-.83-.01-1.66-.11-2.5-.16-.83-.11-1.66-.22-2.49-.37-3.31-.63-6.58-1.81-9.56-3.62-2.98-1.8-5.62-4.26-7.64-7.11-2.02-2.85-3.4-6.04-4.26-9.24-.87-3.21-1.26-6.45-1.28-9.59-.07-1.59,.06-3.13,.12-4.69,.12-1.54,.29-3.04,.5-4.55,1.74-12.1,6.72-23.42,13.34-33.26,3.31-4.95,7.08-9.52,11.06-13.89,2.54-1.66,5.16-3.18,7.86-4.52,2.69-1.34,5.48-2.51,8.37-3.38Z" style="fill:#1e1b1c;"/><path d="M1034.88,343.12c-2.77,3.06-5.83,5.91-9.26,8.42-3.43,2.51-7.22,4.7-11.45,6.33-1.06,.39-2.2,.48-3.33,.56-.57,.03-1.13,.09-1.7,.16-.57,.06-1.14,.07-1.71,.11-2.29,.1-4.63,.05-6.96-.32-4.65-.68-9.3-2.43-13.2-5.23-3.92-2.77-7.11-6.42-9.4-10.43-2.32-4.01-3.84-8.34-4.72-12.72-1.75-8.78-1.08-17.75,1.34-26.13,2.42-8.39,6.73-16.18,12.4-22.79,2.85-3.29,6.04-6.27,9.48-8.91,.86-.65,1.76-1.29,2.62-1.9l2.55-1.72c1.68-1.16,3.45-2.24,5.18-3.35,3.53-2.16,7.14-4.24,10.97-6.08l2.94-1.32,3.05-1.2,3.21-1.04c.55-.17,1.1-.37,1.66-.52,.55-.16,1.18-.19,1.78-.22,2.43-.02,5.01,.14,7.64,1.12,2.59,.95,5.2,2.97,6.25,5.53,.59,1.23,.85,2.5,.95,3.69,.12,1.2,.02,2.35-.16,3.45-.19,1.1-.51,2.15-.9,3.14-.39,.99-.88,1.97-1.57,2.75,.38-2,.14-4-.36-5.81-.47-1.79-1.33-3.41-2.43-4.25-.25-.24-.57-.36-.82-.53-.32-.09-.54-.25-.86-.29l-.42-.09-.46-.03c-.27-.05-.64,.02-.93,.02-1.28,.09-2.78,.53-4.28,1.17-.74,.3-1.57,.43-2.41,.57-.83,.17-1.67,.52-2.51,.77l-2.53,1-2.54,1.14c-3.38,1.62-6.71,3.54-10.01,5.55-1.63,1.05-3.28,2.05-4.89,3.17l-2.43,1.63c-.76,.54-1.5,1.07-2.23,1.62-2.91,2.23-5.59,4.74-7.98,7.49-4.75,5.53-8.36,12.05-10.37,19.05-2.03,6.97-2.54,14.41-1.14,21.35,1.36,6.9,4.81,13.28,10.09,16.96,5.21,3.76,12.19,4.6,19.05,3.01,3.59-.06,7.38-.58,11.2-1.44,3.82-.89,7.69-2.07,11.59-3.43Z" style="fill:#1e1b1c;"/><path d="M1202.32,265.47c-5.38,1.03-10.26,3.99-14.09,7.77-1.92,1.89-3.64,3.92-5.2,6-1.57,2.07-3.02,4.15-4.36,6.27-6.57,7.47-10.63,17.05-12.8,27.07-1.09,4.87-1.33,9.72-.4,14.16l.16,.84,.25,.8c.17,.53,.31,1.07,.5,1.6,.45,1.01,.82,2.05,1.41,2.98,1.07,1.91,2.43,3.65,4.11,5.13,3.28,3.03,7.63,5.11,12.29,6.32,4.67,1.2,9.67,1.57,14.58,1.16,4.9-.4,9.76-1.61,13.98-3.63,1.03-.54,2.06-1.07,2.98-1.71,.49-.29,.92-.63,1.35-.97l.65-.5,.64-.62,1.29-1.23c.42-.42,.89-.79,1.25-1.28,.76-.94,1.57-1.82,2.3-2.78,2.93-3.87,5.12-8.41,6.81-13.16,1.67-4.76,2.8-9.79,3.43-14.88,.63-5.09,.79-10.27,.36-15.27-.06-1.27-.31-2.45-.45-3.68l-.36-1.74c-.06-.27-.11-.62-.18-.83l-.19-.62c-.31-.82-.69-1.65-1.26-2.41-.61-.75-1.35-1.42-1.97-2.3-1.3-1.72-3-3.43-4.95-5.05-1.94-1.62-4.13-3.13-6.48-4.42-2.36-1.29-4.9-2.31-7.55-2.9-2.64-.58-5.44-.79-8.09-.09Zm0,0c2.64-.71,5.41-.79,8.18-.84,2.78-.03,5.61,.04,8.49,.28,5.73,.5,11.84,1.71,17.25,5.75,1.35,1.02,2.44,2.39,3.39,3.88,.95,1.5,1.83,3.11,2.44,4.86l.4,1.34c.12,.44,.17,.77,.26,1.17,.16,.76,.32,1.52,.46,2.27,.18,1.48,.47,2.98,.55,4.44,.51,5.88,.32,11.67-.39,17.41-.72,5.74-1.98,11.43-3.93,16.97-1.96,5.52-4.56,10.95-8.22,15.81-.92,1.21-1.94,2.35-2.91,3.53-.47,.6-1.06,1.11-1.6,1.65l-1.67,1.6-.84,.79-.97,.76c-.65,.51-1.29,1.01-1.97,1.42-1.33,.91-2.73,1.65-4.12,2.36-5.64,2.69-11.57,4.11-17.54,4.61-5.97,.5-12.02,.07-17.92-1.45-5.87-1.54-11.72-4.23-16.5-8.61-.58-.56-1.2-1.08-1.74-1.69l-1.61-1.84c-.51-.63-.96-1.32-1.44-1.98-.49-.65-.89-1.37-1.29-2.08-.86-1.4-1.45-2.92-2.09-4.42-.27-.76-.49-1.54-.73-2.31-.11-.39-.24-.77-.34-1.16l-.24-1.17c-1.32-6.28-.87-12.57,.4-18.34,1.22-5.65,2.99-11.23,5.44-16.57,.57-1.35,1.31-2.64,1.96-3.96,.75-1.27,1.43-2.59,2.26-3.82l1.21-1.86c.43-.6,.86-1.21,1.27-1.83,.83-1.23,1.67-2.48,2.77-3.5,4.37-4.14,9.78-7.02,15.21-8.96,2.72-.98,5.43-1.79,8.1-2.55,2.68-.73,5.31-1.46,8-1.95Z" style="fill:#1e1b1c;"/><path d="M1262.91,284.78c1.1,1.24,1.82,2.89,2.27,4.63,.41,1.75,.5,3.58,.38,5.38-.23,3.62-1.22,7.11-2.55,10.39-3.95,5.73-8.64,10.61-13.94,14.79-5.3,4.15-11.19,7.66-17.81,9.93-3.31,1.13-6.82,1.92-10.5,2.14-3.67,.21-7.54-.18-11.21-1.5-1.83-.65-3.6-1.5-5.24-2.55-1.63-1.05-3.13-2.28-4.49-3.61-1.35-1.34-2.52-2.8-3.59-4.3-1.06-1.55-1.86-3.02-2.71-4.52-1.6-3.06-3.01-6.27-3.96-9.71-.94-3.44-1.45-7.07-1.37-10.73,.11-7.34,2.76-14.54,6.83-20.28,2.62-2.48,5.44-4.55,8.44-6.19,1.5-.82,3.01-1.56,4.55-2.2,1.56-.61,3.12-1.18,4.73-1.54-4.25,4.95-7.56,10.29-9.49,15.63-3.16,4.48-4.96,9.58-5.05,14.79-.05,2.61,.31,5.24,1.01,7.85,.72,2.61,1.84,5.16,3.14,7.65,.7,1.23,1.4,2.51,2.12,3.55,.75,1.05,1.55,2.04,2.42,2.91,1.76,1.73,3.76,3.04,6.01,3.82,4.48,1.63,9.94,1.11,15.16-.68,5.24-1.79,10.3-4.76,14.85-8.32,2.28-1.79,4.43-3.74,6.41-5.83,1-1.04,1.93-2.12,2.83-3.23,.45-.56,.89-1.1,1.27-1.7,.35-.61,.67-1.24,1.19-1.73,2.11-1.93,4.1-4.03,5.7-6.42,.79-1.2,1.5-2.47,1.97-3.86,.52-1.39,.76-2.9,.65-4.56Z" style="fill:#1e1b1c;"/><path d="M1305.37,275.15c-.98,.45-1.71,1.24-2.43,1.97-.7,.77-1.34,1.59-1.93,2.45-1.18,1.72-2.22,3.53-3.21,5.35-1.94,3.68-3.49,7.54-4.85,11.42-1.33,3.89-2.44,7.82-3.21,11.78-.18,.99-.42,1.96-.69,2.92-.28,.96-.63,1.89-.87,2.86-.28,.96-.48,1.93-.67,2.9-.22,.97-.37,1.95-.53,2.92-.62,3.91-.9,7.84-.77,11.73l.18,2.9c.12,.96,.21,1.92,.35,2.87,.18,.94,.3,1.9,.51,2.84l.33,1.4,.16,.7c.05,.25,.11,.36,.16,.55,.8,2.72,2.86,4.97,5.42,6.09,.65,.26,1.31,.49,2,.62,.34,.08,.7,.1,1.04,.15l.53,.02,.27,.02h.37c.98-.02,1.96-.01,2.94-.08,.98-.04,1.96-.1,2.93-.22,7.77-.79,15.38-3.07,22.04-7.03,6.75-3.83,12.47-9.35,17.18-15.68,1.25-1.52,2.23-3.28,3.34-4.92,.27-.42,.54-.82,.81-1.26l.79-1.35,1.58-2.71c2.08-3.62,4.07-7.27,5.91-10.94,1.83-3.66,3.52-7.4,4.68-10.98l.39-1.31c.09-.42,.22-.85,.29-1.25,.17-.8,.24-1.54,.23-1.98,0-.19-.04-.33,0-.17,.03,.07,.22,.56,.73,.97,.5,.42,1.11,.56,1.34,.56,.13,0,.19,0,.23,0h.05s.03-.01,.04-.02l.2-.07-4.37-.46c.33,.21,.71,.39,1.1,.51,.36,.12,.91,.19,.94,.19,.29,.03,.59,.03,.87,0,.11,0,.21-.02,.32-.04l.21-.04c.19-.05,.19-.05,.19-.05-.04,.01-.19,.08-.35,.16-.33,.16-.74,.4-1.15,.64-.82,.5-1.68,1.07-2.53,1.68-1.69,1.21-3.35,2.56-4.94,3.97-3.18,2.84-6.1,5.98-8.63,9.35-5.07,6.72-8.53,14.51-8.95,22.48-.09,2.06-.14,4.28-.02,6.34,.01,.53,.06,1.04,.1,1.56,.04,.52,.08,1.03,.16,1.53,.13,1.02,.39,1.99,.56,2.95,.19,.96,.29,1.92,.44,2.86,.17,.92,.37,1.84,.65,2.69,.56,1.7,1.34,3.26,2.5,4.49,2.23,2.55,6.25,3.89,10.58,4.07,4.35,.18,8.93-.49,13.45-1.45-2.02,1.14-4.11,2.17-6.28,3.08-2.17,.92-4.44,1.69-6.83,2.2-2.39,.51-4.93,.77-7.59,.52-1.33-.09-2.68-.42-4.02-.84-1.31-.49-2.65-1.07-3.85-1.9-2.47-1.58-4.42-3.85-5.91-6.22-.75-1.19-1.36-2.43-1.92-3.68-.54-1.25-1.01-2.51-1.27-3.79-.79-5.19-1.01-10.05-.74-14.98,.29-5.18,1.54-10.25,3.47-14.93,1.93-4.7,4.51-9.02,7.47-12.97,2.97-3.95,6.32-7.55,9.98-10.81,1.83-1.63,3.74-3.18,5.77-4.63,1.02-.73,2.06-1.43,3.2-2.12,.57-.34,1.16-.68,1.85-1.03,.35-.17,.72-.35,1.21-.54,.27-.1,.54-.2,1-.32l.16-.04,.26-.05c.18-.03,.35-.06,.53-.08,.35-.03,.72-.03,1.08,0,.07,0,.65,.08,1.04,.22,.42,.13,.83,.32,1.2,.55l-4.37-.46,.34-.11,.24-.07,.42-.11c.27-.06,.55-.11,.83-.15,.56-.08,1.16-.1,1.82-.06,1.29,.08,2.95,.57,4.27,1.67,.67,.54,1.17,1.16,1.59,1.8,.18,.3,.35,.61,.5,.93,.16,.32,.23,.58,.34,.87,.39,1.16,.46,2.09,.51,2.96,.04,1.69-.16,3.06-.42,4.34-.12,.65-.29,1.23-.43,1.85l-.51,1.74c-1.46,4.5-3.31,8.5-5.26,12.44-1.96,3.92-4.04,7.72-6.19,11.46l-1.63,2.79-.82,1.39c-.28,.47-.6,.95-.9,1.42-1.25,1.88-2.37,3.84-3.8,5.61-5.4,7.26-12.15,13.79-20.19,18.37-7.95,4.72-17,7.42-26.09,8.33-1.14,.13-2.28,.2-3.42,.25-1.14,.08-2.28,.07-3.43,.09h-.43l-.53-.02-1.06-.05c-.7-.09-1.41-.15-2.1-.3-1.4-.26-2.76-.71-4.07-1.26-5.23-2.25-9.39-6.88-11-12.32-.09-.32-.23-.71-.28-.98l-.2-.85-.39-1.7c-.25-1.14-.41-2.28-.62-3.43-.17-1.15-.28-2.3-.42-3.44l-.22-3.45c-.16-4.6,.17-9.17,.88-13.64,.34-2.24,.81-4.45,1.32-6.65,.43-2.21,.94-4.42,1.91-6.47,1.84-4.12,3.96-8.06,6.38-11.78,2.38-3.75,5.12-7.24,8.09-10.49,1.5-1.62,3.09-3.15,4.82-4.52,.85-.69,1.76-1.33,2.7-1.91,.95-.54,1.96-1.07,3.04-1.2Z" style="fill:#1e1b1c;"/><path d="M1469.82,296.79c1.3-2.55,2.33-5.17,2.78-7.82,.52-2.62,.51-5.26-.06-7.61-.57-2.35-1.66-4.38-3.16-5.77-1.46-1.42-3.25-2.21-5.14-2.54-.94-.18-1.88-.47-2.91-.66-.51-.1-1.05-.11-1.59-.13-.49,0-.94,.03-1.4,.09-1.83,.26-3.54,1.06-4.82,2.25-.64,.59-1.17,1.29-1.58,2.05-.19,.34-.43,.88-.62,1.36-.2,.49-.35,.99-.5,1.5-.55,2.03-.65,4.2-.38,6.43,.31,2.22,.99,4.49,1.97,6.72,.23,.56,.5,1.11,.79,1.66,.27,.55,.55,1.11,.88,1.65,.54,.97,1.44,2.47,2.17,3.87,2.96,5.68,4.48,12.18,4.4,18.61-.07,6.44-1.71,12.77-4.53,18.43-2.82,5.67-6.82,10.74-11.79,14.76-2.48,2.01-5.22,3.75-8.17,5.13-1.47,.7-3,1.28-4.57,1.77-.78,.27-1.58,.41-2.37,.62-.8,.19-1.58,.4-2.41,.49-6.5,1.12-13.69,.04-19.58-3.3-5.89-3.33-10.48-8.41-13.4-14.34-1.45-2.98-2.51-6.21-2.88-9.75-.11-.88-.09-1.81-.12-2.72l.11-1.42c.03-.47,.08-.95,.2-1.44l.31-1.47c.14-.49,.33-1,.51-1.49l.28-.74,.39-.74c.28-.49,.53-.98,.85-1.44,1.33-1.89,3.25-3.42,5.32-4.36,2.06-.83,4.18-1.23,6.06-1.2l1.42,.02c.48,0,.89,.1,1.34,.14l1.32,.18,.33,.05,.1,.02,.26,.06c.17,.04,.35,.09,.52,.15,.35,.11,.66,.25,.95,.4,.3,.15,.6,.33,.82,.5,1.03,.73,1.55,1.44,2.02,2.11,.41,.64,.71,1.25,.93,1.79,.44,1.09,.68,2.05,.86,2.96,.66,3.59,.56,6.7,.31,9.82-.13,1.55-.37,3.08-.58,4.61-.19,1.53-.42,3.07-1,4.52-1.14,2.89-2.51,5.68-4.16,8.32-1.65,2.63-3.55,5.14-5.9,7.25-2.31,2.11-5.04,3.84-7.99,4.78-2.95,.91-6.03,1.01-8.81,.33,2.84-.35,5.47-1.33,7.59-2.88,2.14-1.51,3.82-3.49,5.11-5.69,2.58-4.41,3.94-9.51,4.48-14.63,.13-1.28,.49-2.5,.78-3.74,.27-1.25,.41-2.51,.52-3.76,.22-2.47,.22-5.06-.16-7.01-.09-.47-.21-.88-.3-1.09-.04-.12-.07-.14-.03-.09,.06,.1,.15,.24,.59,.57,.09,.05,.23,.15,.37,.22,.14,.07,.29,.12,.47,.19,.09,.03,.18,.05,.27,.07l.14,.02s-.02,0-.03,0l-.19-.02-.77-.1c-.25-.02-.53-.1-.75-.09h-.69c-.94-.04-1.61,.19-2.18,.36-.48,.26-.82,.51-1.14,.93-.58,.88-1.05,2.67-.78,4.75,.22,2.06,.9,4.28,1.91,6.35,2.03,4.16,5.35,7.79,9.29,10,3.95,2.2,8.51,2.93,13.11,2.16,4.65-.71,9.03-2.84,12.83-5.91,7.6-6.13,12.52-15.88,12.61-25.54,.06-4.83-1.06-9.62-3.3-13.94-.58-1.09-1.12-2.02-1.97-3.5-.4-.67-.76-1.37-1.11-2.08-.36-.7-.71-1.41-1.02-2.15-1.28-2.92-2.27-6.09-2.72-9.45-.42-3.36-.28-6.92,.65-10.33,.24-.85,.5-1.69,.83-2.51,.33-.83,.65-1.59,1.14-2.48,.93-1.71,2.13-3.29,3.56-4.61,2.85-2.65,6.5-4.3,10.24-4.83,.93-.12,1.89-.19,2.81-.19,.87,.02,1.74,.03,2.63,.11,1.76,.12,3.61,.38,5.31,1.19,3.4,1.59,6.36,4.27,8.14,7.46,1.78,3.2,2.46,6.75,2.19,10.02-.24,3.28-1.25,6.3-2.69,8.95-1.49,2.64-3.37,4.92-5.52,6.81Z" style="fill:#1e1b1c;"/><path d="M1827.05,617.49c2.35-3.93,4.29-8.04,5.33-12.33,1.13-4.25,1.43-8.63,.75-12.71-.66-4.07-2.28-7.83-4.78-10.65-2.47-2.85-5.73-4.69-9.26-5.61-1.75-.48-3.55-.95-5.44-1.22-.94-.14-1.92-.18-2.89-.2-.47,0-.9,.03-1.36,.04l-1.34,.14c-3.55,.5-6.9,2.06-9.45,4.43-1.28,1.18-2.33,2.57-3.16,4.1-.4,.72-.82,1.66-1.15,2.54-.36,.89-.64,1.81-.9,2.73-1,3.71-1.18,7.64-.69,11.58,.54,3.94,1.74,7.88,3.42,11.7l.63,1.43,.71,1.41,.71,1.41c.25,.47,.53,.92,.79,1.38,.97,1.72,2.31,3.97,3.44,6.13,4.56,8.76,6.89,18.74,6.76,28.64-.11,9.91-2.63,19.68-7,28.45-4.36,8.78-10.57,16.62-18.23,22.83-3.83,3.1-8.04,5.78-12.56,7.88-1.12,.56-2.28,1.01-3.45,1.47-1.15,.49-2.36,.84-3.55,1.24-2.39,.74-4.81,1.33-7.31,1.72-4.96,.83-10.14,.87-15.2,.05-5.06-.85-9.99-2.56-14.44-5.07-8.93-5.02-15.96-12.78-20.4-21.83-2.2-4.54-3.79-9.45-4.33-14.72-.27-2.63-.25-5.37,.26-8.17,.48-2.79,1.52-5.68,3.32-8.27,.9-1.3,2.02-2.47,3.24-3.51,1.25-1.01,2.63-1.84,4.06-2.47,2.87-1.25,5.84-1.68,8.61-1.72,1.39-.01,2.74,.08,4.06,.24,.67,.06,1.3,.2,1.95,.3l.48,.08,.12,.02,.3,.07c.2,.05,.4,.11,.6,.17,.41,.12,.76,.28,1.11,.46,.34,.18,.7,.37,.97,.58,1.22,.85,1.87,1.74,2.47,2.58,.53,.82,.93,1.63,1.23,2.37,.61,1.5,.95,2.87,1.22,4.21,.98,5.3,.84,10.15,.46,15.01-.2,2.42-.56,4.8-.92,7.19-.35,2.38-.76,4.77-1.56,7.06-1.58,4.57-3.51,9.01-5.89,13.22-2.38,4.2-5.18,8.22-8.64,11.65-3.42,3.44-7.51,6.31-12.02,8-4.52,1.67-9.35,2.1-13.86,1.32,4.57-.26,8.96-1.55,12.64-3.87,3.7-2.26,6.74-5.38,9.14-8.91,4.81-7.08,7.53-15.47,8.95-23.93,.34-2.12,.9-4.18,1.33-6.28,.42-2.1,.67-4.22,.87-6.34,.36-4.2,.39-8.53-.31-12.19-.18-.89-.41-1.73-.66-2.34-.12-.32-.25-.53-.33-.66-.06-.08-.11-.11,.15,.11,.05,.01,.14,.1,.23,.14l.32,.13c.06,.02,.12,.04,.19,.05h.01l-.36-.06c-.47-.07-.96-.18-1.42-.22-.94-.11-1.86-.18-2.74-.17-1.77,.02-3.39,.31-4.69,.88-.65,.29-1.23,.65-1.75,1.06-.5,.44-.98,.91-1.37,1.49-1.61,2.28-2.23,5.96-1.82,9.73,.38,3.79,1.6,7.69,3.37,11.32,3.56,7.28,9.32,13.59,16.29,17.48,3.48,1.96,7.28,3.27,11.19,3.93,3.92,.63,7.97,.62,11.97-.05,8.08-1.29,15.68-4.96,22.18-10.21,12.99-10.48,21.35-27,21.52-43.62,.1-8.3-1.82-16.57-5.66-23.96-.98-1.86-1.97-3.53-3.24-5.76-.3-.53-.61-1.05-.9-1.58l-.83-1.64-.83-1.64-.75-1.69c-1.98-4.51-3.48-9.35-4.17-14.42-.64-5.08-.42-10.4,.96-15.49,.36-1.26,.75-2.52,1.24-3.74,.48-1.24,.98-2.39,1.67-3.66,1.34-2.48,3.08-4.75,5.14-6.66,4.13-3.83,9.41-6.24,14.87-7.01,.68-.08,1.37-.15,2.06-.21,.68-.02,1.39-.07,2.05-.06,1.3,.04,2.6,.03,3.92,.18,2.62,.22,5.33,.64,7.84,1.75,5.02,2.18,9.44,5.95,12.21,10.56,2.79,4.6,4.05,9.86,3.86,14.86-.14,5.01-1.45,9.78-3.5,14.05-2.08,4.27-4.87,8.05-8.07,11.32Z" style="fill:#1e1b1c;"/><path d="M257,564.43c-1.34,2.84-3.05,5.5-4.97,8-1.91,2.51-4.04,4.85-6.29,7.08-4.5,4.44-9.49,8.4-14.85,11.83-5.36,3.43-11.11,6.31-17.24,8.38-3.07,1.02-6.24,1.81-9.49,2.29-3.25,.48-6.61,.61-9.98,.23-3.37-.35-6.74-1.28-9.88-2.81-3.15-1.5-5.98-3.71-8.34-6.26-2.37-2.56-4.26-5.5-5.74-8.55-1.5-3.06-2.61-6.24-3.45-9.46-1.69-6.44-2.41-12.98-2.63-19.45-.13-3.24-.09-6.47,0-9.7,.17-3.21,.33-6.41,.58-9.62,.64-6.4,1.35-12.83,2.8-19.14,.63-3.17,1.56-6.28,2.44-9.4,.42-1.57,1-3.08,1.51-4.62,.55-1.53,.98-3.09,1.61-4.59,2.26-6.09,4.94-12.02,7.96-17.78,3.07-5.74,6.59-11.24,10.47-16.49,3.88-5.24,8.19-10.18,12.89-14.73,4.69-4.55,9.75-8.74,15.16-12.46,5.4-3.73,11.17-6.97,17.32-9.56,3.08-1.29,6.24-2.44,9.61-3.27,.82-.23,1.69-.4,2.56-.57,.44-.08,.86-.18,1.3-.25l1.36-.18c1.79-.25,3.75-.31,5.9-.12l-1.93,.14c.75-.2,1.27-.31,1.88-.44,.59-.12,1.18-.24,1.76-.34,1.17-.21,2.33-.39,3.5-.52,2.33-.29,4.67-.47,7.02-.5,4.7-.11,9.46,.27,14.16,1.32,4.69,1.03,9.33,2.73,13.59,5.21,4.26,2.47,8.1,5.73,11.24,9.49,3.12,3.77,5.7,7.98,7.49,12.39,.53,1.08,.88,2.21,1.28,3.32,.37,1.12,.84,2.22,1.12,3.36,.6,2.26,1.27,4.52,1.63,6.81,.21,1.14,.44,2.28,.63,3.42l.42,3.42c.33,2.28,.42,4.56,.56,6.83,.19,2.28,.12,4.54,.14,6.8l.04,6.42c.03,1.03-.03,2.08,.07,3.1l.24,3.07c.09,2.07,.48,4.05,.77,6.06,.08,.5,.13,1.01,.24,1.5l.35,1.46,.69,2.92c.29,.95,.62,1.87,.93,2.81l.47,1.4c.16,.46,.39,.89,.58,1.34l1.19,2.66,1.43,2.5c.43,.87,1.06,1.59,1.59,2.37l.83,1.16c.28,.38,.62,.71,.93,1.07,2.45,2.88,5.39,5.3,8.74,7.13,6.67,3.73,14.66,5.35,22.78,5.53,4.07,.09,8.18-.17,12.27-.71,2.05-.26,4.08-.61,6.1-1.01,1.01-.2,2.01-.43,3.01-.66,.96-.24,2.03-.51,2.84-.75l-.5,.19c10.51-4.64,21.02-9.61,31.34-14.78,10.33-5.18,20.53-10.6,30.43-16.42,4.94-2.92,9.81-5.93,14.5-9.13,4.69-3.19,9.22-6.56,13.26-10.21,1.99-1.83,3.87-3.74,5.33-5.69,.32-.49,.74-.97,.99-1.45l.44-.71,.34-.68c.41-.89,.69-1.72,.66-2.22,0-.52-.08-.77-.34-1.2-.21-.43-.92-.98-1.69-1.53-1.7-1.08-4.11-1.96-6.61-2.62l-1.93-.47c-.61-.12-1.13-.23-1.71-.3-1.13-.16-2.29-.17-3.46-.13-2.35,.13-4.76,.66-7.16,1.47-4.8,1.67-9.5,4.46-13.94,7.69-4.45,3.24-8.69,6.95-12.76,10.87-4.08,3.92-8,8.07-11.81,12.34-7.63,8.54-14.84,17.55-21.87,26.73-7.02,9.18-13.86,18.55-20.61,27.99-27.02,37.78-52.83,76.68-82.01,113.39-7.3,9.17-14.84,18.18-22.74,26.91-7.9,8.73-16.17,17.19-25.06,25.08-8.88,7.88-18.39,15.24-28.94,21.26-5.27,3-10.82,5.63-16.66,7.67-5.84,2.03-11.99,3.44-18.29,3.93l.46-.06c-2.18,.35-4.17,.61-6.25,.86-2.06,.24-4.11,.45-6.17,.62-4.12,.35-8.25,.57-12.4,.65-8.29,.13-16.67-.24-25.07-1.76-4.2-.78-8.4-1.83-12.54-3.41-4.13-1.59-8.26-3.63-11.94-6.66-1.82-1.52-3.55-3.26-4.99-5.24-1.45-1.97-2.63-4.18-3.49-6.47-.85-2.3-1.4-4.67-1.65-7.02-.25-2.35-.25-4.68-.08-6.95l.13-1.73,1.03-1.08,.25-.26,.15-.14c.1-.1,.2-.19,.28-.25,.16-.14,.35-.3,.5-.4,.32-.24,.64-.46,.95-.65,.63-.39,1.25-.7,1.87-.97,1.24-.53,2.49-.91,3.7-1.13,2.45-.47,4.8-.48,7.05-.27,4.51,.42,8.55,1.77,12.39,3.34,3.82,1.6,7.4,3.53,10.84,5.6,3.4,2.13,6.72,4.34,9.87,6.73,6.36,4.73,12.3,9.88,17.98,15.25,5.69,5.37,11.14,10.95,16.46,16.64l-.2-.17c1.75,1.38,3.87,2.7,5.94,3.89,2.12,1.16,4.28,2.25,6.52,3.2,4.47,1.9,9.12,3.45,13.92,4.39,4.79,.94,9.7,1.57,14.63,1.5,2.47,.1,4.92-.17,7.39-.33,1.24-.04,2.45-.3,3.68-.47l3.68-.56-3.63,.81c-1.22,.25-2.42,.6-3.66,.72-2.46,.33-4.93,.77-7.43,.84-4.99,.42-10.02,.12-15-.5-4.99-.63-9.92-1.88-14.69-3.57-2.39-.84-4.73-1.84-7.03-2.93-2.3-1.15-4.49-2.31-6.74-3.87l-.04-.03-.15-.14c-5.61-5.3-11.32-10.47-17.22-15.39-5.9-4.91-11.97-9.58-18.29-13.77-3.14-2.12-6.39-4.03-9.67-5.84-3.3-1.74-6.66-3.31-10.06-4.52-3.39-1.18-6.86-2.08-10.1-2.17-1.61-.06-3.17,.06-4.51,.41-.68,.16-1.29,.4-1.81,.66-.26,.13-.5,.27-.68,.41-.1,.07-.18,.13-.24,.19-.04,.03-.03,.04-.06,.06-.02,.01,0,0,.01,0h.02l.12-.15,1.15-2.81c-.07,3.51,.42,6.87,1.72,9.75,1.26,2.9,3.18,5.4,5.71,7.54,2.52,2.14,5.64,3.85,9.01,5.16,3.37,1.33,7.03,2.23,10.75,2.93,7.47,1.35,15.28,1.73,23.09,1.6,3.91-.07,7.83-.28,11.74-.62,1.95-.17,3.91-.36,5.85-.59,1.92-.23,3.93-.49,5.73-.78l.25-.04,.22-.02c10.64-.82,21.1-4.82,30.77-10.33,9.7-5.52,18.72-12.47,27.24-20.04,8.52-7.57,16.56-15.78,24.28-24.31,7.72-8.53,15.13-17.39,22.34-26.43,28.81-36.23,54.55-75.01,81.7-112.98,6.79-9.49,13.69-18.94,20.81-28.25,7.13-9.3,14.48-18.49,22.36-27.31,3.94-4.41,8.02-8.73,12.34-12.88,4.31-4.15,8.85-8.14,13.81-11.75,4.97-3.59,10.36-6.88,16.57-9.06,3.11-1.05,6.43-1.81,9.9-2,1.74-.07,3.49-.04,5.25,.2,.86,.1,1.77,.29,2.59,.45l2.32,.56c3.1,.85,6.27,1.87,9.51,3.9,1.6,1.11,3.28,2.36,4.61,4.43,1.34,1.99,2.09,4.66,1.97,7.06-.07,2.43-.82,4.4-1.62,6.14l-.64,1.27-.7,1.15c-.46,.79-.98,1.43-1.48,2.15-2.04,2.71-4.29,4.94-6.57,7.06-4.6,4.16-9.44,7.74-14.38,11.09-4.93,3.36-9.97,6.47-15.05,9.48-10.17,5.99-20.55,11.49-31.03,16.75-10.5,5.25-21.04,10.25-31.83,15.01l-.25,.11-.25,.08c-1.28,.39-2.32,.64-3.47,.93-1.12,.27-2.25,.52-3.37,.74-2.25,.45-4.51,.84-6.78,1.12-4.55,.59-9.15,.89-13.79,.79-4.64-.1-9.33-.61-13.97-1.68-4.63-1.07-9.22-2.73-13.5-5.13-1.05-.64-2.12-1.24-3.14-1.92l-2.97-2.2c-.94-.8-1.84-1.65-2.76-2.48-.47-.4-.89-.85-1.29-1.32l-1.23-1.38c-.4-.47-.84-.91-1.21-1.4l-1.08-1.49c-.7-1.01-1.48-1.97-2.04-3.05l-1.81-3.17-1.48-3.3c-.23-.55-.51-1.1-.71-1.66l-.57-1.69c-.37-1.13-.77-2.26-1.11-3.39l-.82-3.43-.41-1.72c-.12-.57-.19-1.15-.28-1.72-.34-2.3-.77-4.6-.88-6.9l-.26-3.44c-.11-1.15-.05-2.28-.08-3.43l-.05-6.64c-.03-2.09,.05-4.19-.13-6.26-.13-2.07-.2-4.15-.5-6.18l-.37-3.06c-.17-1.01-.38-2-.56-3-.31-2.03-.9-3.94-1.41-5.89-.23-.99-.64-1.89-.94-2.84-.33-.94-.63-1.89-1.07-2.77-1.47-3.67-3.54-6.96-5.95-9.89-2.43-2.91-5.33-5.37-8.6-7.27-3.27-1.9-6.9-3.25-10.71-4.09-3.81-.86-7.79-1.18-11.8-1.09-2,.03-4.01,.18-6,.43-1,.12-1.99,.27-2.96,.44-.49,.08-.97,.18-1.45,.28-.45,.1-.99,.22-1.3,.3l-.79,.21-1.14-.06c-.98-.05-2.16-.08-3.48,.12l-.97,.12c-.33,.05-.67,.13-1,.2-.67,.14-1.34,.25-2.03,.45-2.72,.66-5.47,1.65-8.17,2.79-5.4,2.28-10.62,5.19-15.53,8.59-4.92,3.38-9.55,7.21-13.85,11.39-4.31,4.17-8.28,8.7-11.85,13.54-3.57,4.83-6.82,9.91-9.67,15.22-.72,1.32-1.36,2.69-2.04,4.03-.33,.68-.68,1.34-1,2.03l-.91,2.07c-.59,1.39-1.25,2.75-1.79,4.16l-1.6,4.24c-2,5.7-3.69,11.52-5.02,17.43-1.48,5.88-2.58,11.87-3.5,17.9-.4,3.02-.72,6.07-1.06,9.11-.25,3.03-.46,6.07-.5,9.09-.13,6.05,.22,12.08,1.4,17.85,1.17,5.75,3.26,11.3,6.81,15.6,3.48,4.34,8.54,7.23,14.25,8.16,5.7,1.01,11.8,.29,17.65-1.23,5.87-1.57,11.57-4.02,16.99-6.97,5.42-2.96,10.57-6.49,15.28-10.54,2.36-2.03,4.6-4.19,6.67-6.52,2.08-2.32,3.97-4.82,5.52-7.55Z" style="fill:#1e1b1c;"/><path d="M440.25,474.92c-4,15.28-7.92,30.58-11.68,45.91-1.87,7.67-3.7,15.35-5.34,23.05-.42,1.92-.78,3.85-1.15,5.78-.36,1.95-.73,3.9-1.13,5.84-.79,3.88-1.64,7.75-2.53,11.61-3.58,15.42-7.64,30.71-12.06,45.92-4.44,15.2-9.25,30.29-14.65,45.21-5.42,14.91-11.36,29.68-18.67,43.94-3.69,7.11-7.68,14.12-12.55,20.72-2.44,3.3-5.09,6.5-8.2,9.43l-1.17,1.09-1.25,1.04c-.82,.71-1.73,1.34-2.64,1.98-.9,.65-1.92,1.19-2.9,1.76-1.07,.48-2.07,1.04-3.23,1.39-2.22,.84-4.75,1.24-7.27,1.15-2.54-.04-5.03-.78-7.24-1.79l-1.63-.82c-.52-.3-1-.64-1.49-.96-1.03-.62-1.86-1.39-2.76-2.12-.87-.72-2.04-1.81-2.88-3.47-.21-.41-.39-.91-.56-1.37-.14-.5-.24-1.04-.3-1.57-.08-1.09,.06-2.2,.38-3.12,.64-1.87,1.63-3.07,2.54-4.07,.93-.96,1.86-1.73,2.78-2.43,1.84-1.38,3.67-2.45,5.49-3.48,3.64-2.03,7.28-3.74,10.91-5.42l21.61-9.74c7.14-3.25,14.18-6.64,21.11-10.19,13.85-7.12,27.3-14.89,39.7-24.06,3.09-2.3,6.11-4.69,9.05-7.16,1.48-1.23,2.92-2.5,4.35-3.78l2.11-1.94,1.89-1.88c5.01-5.41,9.69-11.74,14.28-18.05,9.18-12.7,18.09-25.77,27.28-38.67,9.17-12.91,18.54-25.73,28.34-38.24,19.6-24.99,40.76-49.11,65.48-69.7,3.03-2.6,6.32-5.06,9.51-7.59l1.38-.94,1.27-.85,2.55-1.64c1.7-1.08,3.41-2.13,5.13-3.19,6.86-4.17,13.89-8.03,21.03-11.67,14.29-7.24,29.05-13.64,44.37-18.58l5.77-1.77c1.93-.57,3.83-1.24,5.8-1.69l5.86-1.5c1.96-.49,3.9-1.04,5.89-1.4l5.94-1.2c1.98-.4,3.96-.83,5.97-1.06l6.02-.85,3.01-.42c1-.15,2.09-.19,3.13-.29,2.11-.22,4.2-.18,6.3-.25,2.09,.08,4.19,.05,6.26,.26,4.17,.25,8.27,.9,12.34,1.64,8.1,1.64,16.02,4.05,23.58,7.28,7.55,3.24,14.85,7.11,21.63,11.82,6.78,4.69,13.17,10.03,18.73,16.26,2.84,3.05,5.35,6.42,7.75,9.87,1.11,1.79,2.31,3.52,3.28,5.41,.5,.93,1.04,1.84,1.51,2.79l1.35,2.88c.47,.95,.84,1.95,1.23,2.94,.37,1,.8,1.97,1.12,2.99,.63,2.04,1.32,4.07,1.74,6.17,.54,2.07,.83,4.2,1.15,6.33,.19,1.06,.2,2.14,.3,3.21,.07,1.06,.19,2.18,.19,3.16,.13,4.05,.11,8.12-.02,12.18-.17,4.06-.44,8.13-.9,12.19-.94,8.11-2.45,16.21-5.08,24.15-1.31,3.96-2.9,7.89-4.94,11.7-2.05,3.79-4.51,7.53-7.98,10.77-.82,.83-1.81,1.56-2.77,2.31-1.04,.68-2.05,1.4-3.23,1.93-2.28,1.14-4.9,1.95-7.6,2.07-2.68,.14-5.37-.27-7.76-1.13-.61-.2-1.16-.47-1.74-.71l-.86-.38c-.3-.14-.62-.33-.92-.5-1.23-.69-2.35-1.54-3.33-2.48-1.98-1.87-3.41-4.04-4.47-6.22-1.07-2.19-1.8-4.41-2.34-6.62-1.05-4.42-1.32-8.78-1.22-13.05,.24-8.55,2-16.8,4.7-24.68,2.72-7.87,6.42-15.39,11.06-22.32,4.63-6.93,10.21-13.27,16.65-18.67,6.42-5.41,13.73-9.83,21.53-12.99,1.99-.81,3.84-1.46,5.73-2.15,1.88-.7,3.78-1.33,5.67-1.99l5.71-1.89c1.92-.59,3.83-1.21,5.76-1.77,7.71-2.28,15.55-4.24,23.56-5.69,4.02-.67,8.05-1.31,12.15-1.65,2.04-.23,4.12-.29,6.18-.42l3.12-.05,1.56-.02,1.57,.05c4.18,.09,8.43,.55,12.67,1.48,4.22,.94,8.48,2.3,12.45,4.57,3.97,2.22,7.61,5.28,10.43,8.97,2.82,3.68,4.88,7.88,6.1,12.17,.35,1.07,.53,2.15,.79,3.22l.36,1.62,.22,1.61c.14,1.08,.31,2.16,.42,3.23l.17,3.21c.02,.53,.06,1.07,.07,1.6l-.03,1.58-.06,3.17c-.04,1.06-.17,2.11-.25,3.17-.1,1.06-.16,2.12-.35,3.16-1.16,8.39-3.71,16.55-7.42,24.05-1.78,3.79-3.96,7.35-6.18,10.86-2.34,3.42-4.77,6.79-7.46,9.91-5.31,6.32-11.23,12.05-17.58,17.19-12.7,10.31-26.94,18.5-42,24.61-15.05,6.12-31,10.19-47.37,11.45-8.18,.63-16.47,.43-24.7-.69-4.11-.63-8.22-1.4-12.25-2.6-2.03-.52-4.01-1.27-6-1.95-.99-.36-1.96-.79-2.94-1.19-.98-.4-1.96-.8-2.9-1.29l-2.86-1.4-2.78-1.59c-.94-.51-1.83-1.1-2.71-1.7-.88-.6-1.8-1.16-2.65-1.81-3.45-2.54-6.64-5.44-9.55-8.6-.72-.79-1.38-1.64-2.07-2.46l-1.02-1.24c-.33-.42-.63-.87-.94-1.3l-1.85-2.63-1.66-2.75-.82-1.38c-.25-.47-.48-.95-.73-1.42l-1.43-2.86c-.44-.97-.83-1.95-1.24-2.93-.4-.98-.84-1.95-1.15-2.96-2.83-7.98-4.31-16.28-4.84-24.53-.2-2.07-.17-4.12-.23-6.18-.09-2.06,.04-4.11,.09-6.16,.02-2.06,.2-4.09,.36-6.12l.24-3.05,.44-3.14c1.19-8.38,3.85-16.51,7.59-24,3.74-7.5,8.52-14.38,13.9-20.62,10.81-12.48,23.86-22.5,37.58-31,6.87-4.26,13.98-8.09,21.22-11.59,7.24-3.49,14.6-6.74,22.09-9.61,7.48-2.88,15.05-5.54,22.7-7.9,7.66-2.34,15.37-4.48,23.15-6.36,7.78-1.85,15.61-3.49,23.48-4.9,7.88-1.37,15.79-2.53,23.74-3.46,7.95-.89,15.93-1.55,23.93-1.96,8-.39,16.02-.49,24.04-.31,8.02,.16,16.05,.7,24.06,1.59,8.01,.9,16,2.17,23.91,3.96,7.91,1.8,15.75,4.11,23.38,7.19,7.62,3.08,15.03,6.94,21.83,11.92,6.76,4.97,12.99,11.09,17.43,18.57l1.65,2.8c.48,.97,.93,1.96,1.4,2.94,1,1.93,1.62,4.02,2.38,6.06,.39,1.02,.58,2.07,.88,3.11,.26,1.04,.56,2.08,.78,3.13l.53,3.19,.26,1.6c.06,.53,.09,1.07,.14,1.61,.78,8.59-.25,17.33-2.99,25.38-2.68,8.07-6.67,15.58-11.59,22.29-4.89,6.74-10.55,12.82-16.74,18.25-6.22,5.4-12.93,10.18-20.06,14.3-7.12,4.11-14.71,7.48-22.66,9.98-1,.3-2.01,.56-3.02,.84l-1.51,.41-1.54,.34c-1.03,.22-2.05,.46-3.09,.66l-3.15,.5c-1.04,.19-2.12,.25-3.19,.36-1.07,.1-2.13,.21-3.22,.21-1.07,.02-2.2,.06-3.23,.05l-3.02-.07c-4.04-.13-8.09-.36-12.19-.79-4.1-.45-8.22-1.04-12.53-2.29-1.08-.33-2.17-.68-3.3-1.17-1.12-.47-2.29-1.04-3.51-1.87-1.19-.84-2.57-1.94-3.63-3.93-.53-.96-.87-2.21-.96-3.44-.05-1.22,.15-2.42,.5-3.37,.71-1.95,1.73-3.2,2.69-4.24,.98-1.03,1.96-1.84,2.94-2.54,1.96-1.43,3.91-2.48,5.87-3.44,3.92-1.89,7.86-3.28,11.83-4.47,3.97-1.17,7.98-2.12,12-2.88,8.05-1.52,16.18-2.36,24.35-2.55,8.33-.25,17.14,.89,25.23,4.29,8.12,3.32,15.31,9.09,20.45,16.14,5.18,7.05,8.47,15.14,10.41,23.29,.96,4.09,1.63,8.21,2.07,12.33,.38,4.12,.61,8.24,.59,12.34-.02,4.09-.17,8.19-.53,12.22l-.56,6.05c-.2,2.01-.52,4.02-.78,6.03l-.41,3.01c-.16,1-.35,2-.53,2.99-.37,1.99-.7,3.99-1.11,5.98l-1.35,5.94-.34,1.48-.4,1.47-.8,2.94c-4.26,15.67-10.85,30.72-19.29,44.62-8.56,13.84-19.04,26.49-31.14,37.38-12.12,10.85-25.8,20-40.59,26.87-14.79,6.84-30.74,11.55-47.3,12.62-8.26,.51-16.7,.21-24.99-1.72-8.27-1.8-16.43-5.32-23.32-10.79l-2.52-2.13c-.8-.76-1.56-1.56-2.33-2.34-.8-.76-1.48-1.63-2.18-2.49-.68-.87-1.44-1.68-2.01-2.62l-1.83-2.75c-.55-.95-1.05-1.93-1.58-2.9-.25-.49-.54-.96-.75-1.46l-.64-1.51c-.4-1.01-.89-2-1.21-3.04-2.81-8.25-3.64-16.91-2.96-25.22,.63-8.33,2.48-16.4,4.96-24.15,2.46-7.78,5.71-15.19,9.24-22.42l1.35-2.7c.47-.91,.83-1.74,1.5-2.84,1.23-2.05,2.76-3.92,4.55-5.43,1.78-1.53,3.74-2.78,5.8-3.76,2.08-.96,4.25-1.64,6.46-2.09,4.43-.85,9.03-.69,13.38,.59,.55,.18,1.09,.31,1.64,.54l1.65,.69c.55,.29,1.09,.6,1.62,.91,.54,.3,1.04,.75,1.55,1.13,2.02,1.65,3.52,4.03,4.27,6.45l.43,1.81c.15,.61,.14,1.18,.21,1.77,.16,1.2,.06,2.31,.02,3.44,0,.57-.08,1.11-.16,1.65l-.23,1.62c-.15,1.08-.45,2.08-.67,3.13-.21,1.05-.57,2.01-.86,3.02l-.46,1.49-.53,1.44c-.36,.96-.71,1.93-1.08,2.88l-1.2,2.8c-3.23,7.39-7.21,14.52-11.93,21.1-9.42,13.18-21.74,24.09-35.49,32.33-13.76,8.26-28.91,13.98-44.48,17.32-7.8,1.63-15.71,2.71-23.66,3.08-7.94,.38-15.93,.13-23.8-1-7.85-1.15-15.66-3.14-22.8-6.67-3.52-1.82-6.92-3.99-9.7-6.86-2.82-2.8-4.9-6.36-5.73-10.23,.95,3.84,3.12,7.3,5.98,9.98,2.82,2.74,6.23,4.78,9.76,6.47,7.14,3.27,14.89,5.01,22.67,5.91,7.8,.88,15.67,.9,23.48,.29,7.81-.6,15.57-1.89,23.17-3.72,15.2-3.69,29.84-9.69,42.95-18.05,13.11-8.34,24.62-19.14,33.25-31.91,4.32-6.39,7.9-13.21,10.8-20.37l1.07-2.67c.33-.89,.62-1.79,.94-2.69l.46-1.34,.38-1.35c.23-.9,.55-1.8,.7-2.69,.84-3.56,1.11-7.22,.25-9.98-.48-1.34-1.19-2.39-2.24-3.22-1.04-.85-2.46-1.47-4.09-1.88-3.24-.87-6.76-.91-10.06-.19-1.65,.38-3.25,.93-4.74,1.66-1.48,.76-2.84,1.68-4.04,2.76-1.21,1.06-2.16,2.34-2.93,3.68-.36,.58-.8,1.57-1.2,2.43l-1.23,2.63c-3.23,7.03-6.17,14.2-8.29,21.54-2.15,7.33-3.65,14.81-4.04,22.24-.45,7.43,.53,14.79,2.97,21.44,.28,.84,.71,1.62,1.05,2.43l.54,1.21c.18,.4,.43,.77,.63,1.15,.44,.76,.85,1.53,1.3,2.28l1.51,2.14c.46,.74,1.09,1.35,1.64,2.03,.56,.66,1.11,1.34,1.77,1.92,.63,.6,1.24,1.22,1.89,1.81l2.05,1.64c5.58,4.24,12.3,7.1,19.42,8.7,7.11,1.65,14.62,2.08,22.1,1.64,7.49-.44,14.99-1.73,22.3-3.76,7.32-2.01,14.49-4.68,21.41-7.89,13.85-6.43,26.72-15.03,38.12-25.24,11.38-10.25,21.24-22.15,29.3-35.17,7.93-13.09,14.15-27.25,18.17-42.06l.76-2.77,.38-1.39,.32-1.4,1.27-5.62c.39-1.88,.7-3.78,1.05-5.66,.17-.95,.35-1.89,.5-2.84l.39-2.86c.24-1.91,.56-3.8,.74-5.72l.53-5.75c.35-3.83,.48-7.63,.5-11.43,.02-3.8-.2-7.57-.54-11.31-.4-3.73-1-7.42-1.85-11.01-1.71-7.18-4.54-13.99-8.73-19.69-4.18-5.69-9.76-10.18-16.27-12.85-3.24-1.35-6.69-2.3-10.23-2.86-3.57-.57-7.13-.74-10.9-.65-7.62,.18-15.25,.96-22.72,2.38-3.73,.7-7.42,1.58-11.02,2.64-3.59,1.07-7.11,2.33-10.31,3.88-1.58,.77-3.12,1.62-4.35,2.53-.63,.45-1.16,.91-1.54,1.32-.39,.39-.57,.76-.53,.67,0-.03,.08-.23,.04-.47,.02-.25-.12-.51-.15-.61-.15-.24,0,.03,.42,.3,.41,.28,1.01,.61,1.72,.89,.68,.3,1.47,.56,2.28,.8,3.28,.95,7,1.53,10.74,1.93,3.76,.39,7.59,.62,11.44,.74l2.9,.07c.94,0,1.79-.04,2.69-.05,.88,.01,1.78-.09,2.68-.18,.9-.09,1.79-.13,2.7-.3,3.61-.46,7.21-1.4,10.78-2.42,7.11-2.24,14.05-5.3,20.6-9.08,6.55-3.79,12.75-8.2,18.45-13.16,5.68-4.98,10.83-10.54,15.22-16.58,4.42-6.02,7.89-12.64,10.2-19.55,2.36-6.91,3.17-14.19,2.54-21.32-.04-.45-.05-.89-.11-1.34l-.22-1.33-.44-2.65c-.18-.88-.44-1.74-.66-2.61-.25-.86-.39-1.76-.72-2.59-.64-1.66-1.11-3.38-1.95-4.95l-1.14-2.41-1.36-2.3c-3.64-6.14-8.88-11.34-14.8-15.7-5.95-4.36-12.64-7.87-19.65-10.71-7.02-2.84-14.37-5.01-21.86-6.71-7.49-1.7-15.12-2.91-22.8-3.78-7.68-.86-15.43-1.38-23.19-1.53-7.76-.17-15.54-.07-23.32,.3-7.77,.4-15.54,1.05-23.28,1.91-7.74,.91-15.45,2.04-23.13,3.38-7.67,1.37-15.3,2.98-22.89,4.78-7.57,1.83-15.08,3.91-22.53,6.19-7.44,2.3-14.78,4.88-22.03,7.67-7.26,2.78-14.36,5.92-21.34,9.29-6.97,3.37-13.79,7.04-20.34,11.11-13.09,8.1-25.36,17.58-35.26,29.01-4.93,5.71-9.22,11.91-12.53,18.55-3.31,6.63-5.6,13.7-6.63,20.96-1.89,14.88-1.45,30.57,3.46,44.39,.26,.88,.65,1.71,.99,2.55,.36,.84,.68,1.69,1.06,2.52l1.23,2.43c.21,.4,.4,.82,.62,1.21l.7,1.16,1.4,2.33,1.56,2.21c.26,.37,.51,.75,.79,1.1l.86,1.04c.58,.69,1.13,1.41,1.73,2.07,2.44,2.65,5.11,5.08,8.02,7.22,.71,.55,1.5,1.01,2.24,1.53,.75,.51,1.5,1.01,2.3,1.44l2.36,1.36,2.46,1.2c.81,.42,1.65,.77,2.51,1.11,.85,.34,1.68,.72,2.55,1.03,1.75,.58,3.46,1.25,5.26,1.7,3.54,1.06,7.22,1.74,10.9,2.31,7.41,1,15,1.2,22.56,.62,15.14-1.17,30.17-4.97,44.35-10.75,14.2-5.75,27.62-13.5,39.45-23.1,5.92-4.79,11.39-10.1,16.24-15.87,2.46-2.86,4.66-5.91,6.78-9,2-3.16,3.96-6.35,5.53-9.71,3.3-6.66,5.49-13.77,6.5-21.02,.17-.9,.22-1.82,.3-2.73,.07-.91,.18-1.82,.22-2.73l.05-2.75,.03-1.38c0-.45-.05-.9-.07-1.35l-.14-2.71c-.09-.89-.24-1.76-.35-2.64l-.17-1.32-.29-1.27c-.21-.84-.34-1.72-.61-2.52-.94-3.31-2.46-6.3-4.43-8.88-1.98-2.58-4.49-4.7-7.4-6.35-2.9-1.67-6.25-2.76-9.71-3.53-3.48-.76-7.11-1.18-10.82-1.25l-1.39-.05-1.4,.02-2.8,.04c-1.88,.12-3.75,.17-5.64,.39-3.77,.31-7.54,.91-11.31,1.54-7.54,1.37-15.04,3.24-22.47,5.44-1.86,.54-3.71,1.14-5.56,1.71l-5.53,1.83c-1.83,.65-3.68,1.26-5.5,1.93-1.82,.67-3.7,1.33-5.36,2.01-6.83,2.77-13.21,6.62-18.86,11.39-11.33,9.51-19.82,22.48-24.69,36.58-2.42,7.04-3.96,14.43-4.16,21.67-.09,3.61,.16,7.2,.95,10.47,.78,3.24,2.13,6.23,3.96,7.9,.45,.43,.91,.78,1.4,1.05,.13,.07,.23,.14,.38,.21l.5,.21c.33,.13,.66,.32,1,.41,1.33,.47,2.62,.63,3.87,.58,1.26-.04,2.5-.42,3.73-1.04,.63-.26,1.23-.72,1.84-1.1,.59-.49,1.21-.91,1.77-1.49,2.33-2.15,4.32-5.07,6.01-8.21,1.69-3.15,3.08-6.57,4.25-10.1,2.34-7.07,3.77-14.57,4.63-22.13,.43-3.79,.68-7.61,.84-11.43,.12-3.83,.14-7.66,.02-11.5,0-.99-.11-1.83-.17-2.75-.09-.89-.08-1.8-.25-2.69-.28-1.78-.5-3.57-.97-5.32-.35-1.77-.94-3.49-1.47-5.22-.26-.87-.64-1.7-.96-2.55-.33-.85-.64-1.7-1.05-2.52l-1.16-2.48c-.41-.82-.88-1.61-1.31-2.42-.83-1.63-1.9-3.14-2.86-4.71-2.11-3.02-4.32-6.01-6.87-8.74-4.96-5.56-10.77-10.43-16.96-14.71-6.19-4.31-12.92-7.87-19.87-10.86-6.96-2.98-14.23-5.18-21.6-6.68-3.69-.67-7.41-1.27-11.13-1.48-1.86-.19-3.71-.15-5.57-.23-1.84,.07-3.7,.03-5.53,.23-.92,.09-1.81,.11-2.77,.25l-2.85,.4-5.71,.8c-1.91,.22-3.79,.63-5.68,1.01l-5.67,1.14c-1.9,.33-3.76,.87-5.63,1.34l-5.61,1.44c-1.88,.44-3.71,1.09-5.57,1.63l-5.55,1.7c-14.75,4.76-29.06,10.96-42.93,17.99-6.93,3.53-13.76,7.28-20.39,11.31-1.65,1.01-3.3,2.03-4.93,3.07l-2.43,1.57-2.26,1.52c-2.99,2.38-6.04,4.65-9,7.19-23.88,19.88-44.66,43.51-63.99,68.17-9.68,12.35-18.95,25.04-28.07,37.87-9.14,12.83-18.02,25.85-27.34,38.75-4.7,6.44-9.4,12.86-15.12,19.06l-2.31,2.3-2.25,2.07c-1.51,1.35-3.02,2.71-4.58,4.01-3.09,2.62-6.26,5.15-9.49,7.58-12.93,9.72-26.83,17.99-41.2,25.02-14.35,7.07-29.2,12.97-43.58,19.12-3.57,1.55-7.12,3.13-10.42,4.87-1.64,.87-3.24,1.78-4.58,2.73-.67,.48-1.26,.96-1.72,1.41-.44,.43-.67,.84-.67,.84,.03,.02-.06-.46-.05-.33,.04,.04,.04,.07,.07,.13,.06,.07,.12,.15,.17,.23,.19,.19,.31,.36,.68,.66,.63,.52,1.23,1.13,1.9,1.53,.33,.22,.65,.47,.97,.67l1,.53c1.35,.64,2.72,1.11,4.14,1.15,1.41,.08,2.87-.07,4.36-.6,2.98-.91,5.92-3.01,8.61-5.4,2.7-2.42,5.19-5.26,7.52-8.25,4.66-6,8.69-12.66,12.43-19.47,3.72-6.84,7.14-13.88,10.34-21.03,3.23-7.14,6.23-14.4,9.12-21.71,5.75-14.63,10.94-29.51,15.77-44.5,4.81-15,9.26-30.13,13.25-45.38,1-3.81,1.96-7.63,2.86-11.46,.46-1.92,.87-3.83,1.29-5.75,.44-1.94,.86-3.88,1.34-5.8,1.88-7.7,3.95-15.32,6.04-22.94,4.21-15.23,8.62-30.4,13.13-45.53Z" style="fill:#1e1b1c;"/><path d="M677.49,442.33c-12.3,12.35-24.3,24.82-35.91,37.61-12.68,11.63-24.84,23.81-36.64,36.32-11.76,12.54-22.97,25.58-33.67,38.99l-7.88,10.17c-2.57,3.43-5.03,6.94-7.55,10.4-1.25,1.74-2.52,3.46-3.75,5.22l-3.63,5.32-7.18,10.76c-19.02,28.87-37.71,58.11-57.47,86.69-9.9,14.29-20.01,28.46-30.86,42.19-6.05,6.37-12.22,12.66-18.9,18.45-3.34,2.89-6.82,5.65-10.49,8.14-1.86,1.21-3.77,2.37-5.77,3.33-2,.95-4.12,1.75-6.29,2,4.08-1.57,7.27-4.52,10.27-7.51,3-3.03,5.77-6.29,8.41-9.66,5.28-6.74,10.22-13.77,14.93-20.95,10.63-13.44,20.65-27.48,30.47-41.66,19.64-28.4,38.26-57.54,57.35-86.52l7.24-10.85,3.69-5.4c1.25-1.79,2.55-3.55,3.82-5.33,2.57-3.54,5.09-7.12,7.71-10.62l8.03-10.36c10.89-13.66,22.28-26.9,34.22-39.63,11.94-12.72,24.36-24.96,37.07-36.89,13.8-10.75,27.87-21.11,42.78-30.21Z" style="fill:#1e1b1c;"/><path d="M945.82,596.13c5.17-11.14,10.87-22.02,16.77-32.8,5.91-10.78,12.16-21.36,18.63-31.84,13.06-20.85,27.12-41.16,42.94-60.2,7.89-9.52,16.19-18.77,25.15-27.4,8.95-8.64,18.44-16.84,28.86-23.96,5.19-3.58,10.65-6.83,16.36-9.68,5.71-2.85,11.68-5.28,17.92-7.06,6.23-1.78,12.74-2.89,19.34-3.06,1.63-.06,3.16,0,4.74-.01,1.57,.02,3.14-.01,4.71,.04l4.72,.21,2.36,.1,2.36,.2,4.72,.43c1.57,.17,3.14,.43,4.71,.64,3.15,.37,6.27,1.08,9.4,1.65,6.23,1.42,12.42,3.24,18.42,5.79,5.99,2.54,11.79,5.89,16.92,10.32,5.11,4.41,9.46,10.13,11.89,16.75,1.31,3.27,1.9,6.77,2.25,10.24,.07,.87,.04,1.74,.06,2.61-.02,.87,.06,1.74-.04,2.6l-.26,2.57-.14,1.28c-.07,.42-.17,.84-.25,1.25-1.26,6.72-3.96,12.91-7.33,18.5-3.39,5.58-7.41,10.67-11.88,15.21-4.47,4.54-9.21,8.76-14.25,12.52l-1.87,1.44-.48,.36-.57,.4c-.39,.26-.78,.52-1.19,.75-1.62,.95-3.39,1.7-5.23,2.15-1.84,.47-3.77,.65-5.68,.55-.46-.03-.99-.08-1.39-.13l-1.24-.17c-.83-.15-1.66-.27-2.48-.47-3.3-.73-6.69-1.9-9.78-4.17-1.54-1.12-2.91-2.66-3.96-4.39-.47-.91-.95-1.81-1.2-2.79-.35-.96-.46-1.93-.6-2.9-.12-.97-.05-1.9-.06-2.84,.11-.9,.23-1.8,.37-2.69,.4-1.73,.89-3.45,1.69-5.06,.72-1.64,1.75-3.13,2.86-4.53,1.19-1.34,2.46-2.62,3.96-3.61,2.91-2.1,6.46-3.25,10.03-3.47,1.78-.02,3.59,.06,5.3,.53,1.74,.39,3.44,1.12,4.94,2.04,1.52,.91,2.85,2.06,4.03,3.32,1.18,1.26,2.2,2.65,3.02,4.13,1.71,2.94,2.63,6.2,3.09,9.43,.88,6.52-.29,12.94-2.29,18.86-4.09,11.9-11.15,22.25-18.98,31.66,3.48-5.05,6.79-10.22,9.57-15.64,2.8-5.4,5.25-11,6.75-16.81,1.5-5.77,2.24-11.81,1.13-17.45-.56-2.79-1.51-5.5-3.02-7.79-.73-1.16-1.6-2.21-2.57-3.13-.97-.92-2.03-1.73-3.18-2.33-1.16-.6-2.33-1.06-3.59-1.28-1.26-.3-2.56-.27-3.83-.22-2.53,.29-5.01,1.2-7.01,2.79-1.04,.74-1.89,1.71-2.7,2.69-.73,1.05-1.43,2.12-1.88,3.32-.96,2.32-1.47,5.1-1.1,7.31,.12,.54,.18,1.1,.41,1.58,.14,.52,.44,.94,.67,1.4,.61,.84,1.3,1.64,2.27,2.29,1.9,1.32,4.44,2.2,7.13,2.69,5.82,1.23,9.34,.2,13.85-3.94,4.68-3.72,8.98-7.83,12.98-12.15,4.02-4.3,7.57-8.97,10.44-13.92,2.86-4.95,4.99-10.23,5.89-15.6,.06-.33,.14-.67,.19-1l.08-1.01,.17-2.01c.08-.67-.02-1.33-.01-2-.03-.66,0-1.33-.07-1.99-.34-2.61-.8-5.21-1.84-7.62-1.93-4.86-5.16-9.25-9.35-12.81-4.19-3.57-9.13-6.44-14.44-8.63-5.31-2.21-10.93-3.84-16.66-5.11-2.91-.5-5.77-1.15-8.72-1.47-1.47-.19-2.93-.41-4.4-.57l-4.44-.39-2.22-.2-2.23-.11-4.47-.23c-1.49-.06-2.99-.04-4.48-.07-1.48,0-3.02-.06-4.46-.02-5.66,.11-11.34,1.03-16.9,2.58-11.15,3.09-21.71,8.67-31.66,15.18-9.97,6.54-19.26,14.24-28.1,22.46-4.43,4.1-8.7,8.4-12.91,12.75-4.21,4.36-8.34,8.81-12.36,13.37-4.02,4.56-7.95,9.2-11.81,13.91-3.85,4.72-7.61,9.51-11.36,14.33-7.48,9.64-14.63,19.55-21.6,29.59-7.02,10.01-13.74,20.24-20.34,30.56-3.3,5.16-6.54,10.36-9.73,15.59-3.22,5.22-6.35,10.49-9.42,15.8Z" style="fill:#1e1b1c;"/><path d="M1060.38,693.28c2.68-2.49,5.36-4.95,7.98-7.48,2.66-2.48,5.29-4.98,7.89-7.5,5.21-5.04,10.36-10.1,15.38-15.24,1.26-1.28,2.69-2.35,4.09-3.47,1.39-1.12,2.71-2.32,4.05-3.5,2.66-2.37,5.28-4.78,7.84-7.24,5.11-4.92,10.02-10.02,14.38-15.41,2.17-2.69,4.23-5.45,5.98-8.29,1.76-2.83,3.25-5.75,4.1-8.58,.88-2.84,.95-5.44,.17-7.33-.36-.92-1.13-2.02-1.66-2.46-.28-.2-.48-.36-.69-.4-.19-.09-.43-.08-.77-.09-.68,.05-1.78,.41-2.93,1.09-1.15,.67-2.36,1.59-3.52,2.63-2.34,2.08-4.53,4.66-6.57,7.36-4.09,5.44-7.61,11.51-10.7,17.77-3.09,6.27-5.76,12.79-7.95,19.44-2.19,6.65-3.92,13.44-4.96,20.26-1.01,6.8-1.42,13.7-.5,20.18,.45,3.24,1.23,6.36,2.45,9.17,.28,.72,.65,1.37,.98,2.06l1.17,1.91,.29,.48,.34,.42,.68,.84c.23,.27,.43,.59,.68,.83l.76,.72c2.02,1.93,4.44,3.25,7.2,3.95,2.76,.71,5.84,.83,9,.49,3.17-.37,6.39-1.14,9.59-2.16,1.6-.51,3.2-1.08,4.77-1.74,.79-.33,1.55-.74,2.33-1.08,.79-.33,1.59-.65,2.4-.95,6.6-2.2,13.09-5.17,19.51-8.4,3.21-1.61,6.39-3.32,9.54-5.11,3.17-1.76,6.29-3.62,9.4-5.54-2.46,2.7-5.08,5.26-7.72,7.81-2.68,2.51-5.43,4.94-8.26,7.32-2.82,2.4-5.78,4.62-8.81,6.8-3.03,2.17-6.16,4.26-9.44,6.19-1.62,1-3.44,1.63-5.22,2.29-.91,.31-1.8,.66-2.7,1-.9,.33-1.83,.62-2.75,.93-3.7,1.17-7.53,2.11-11.56,2.58-4.03,.43-8.31,.35-12.56-.74-4.25-1.06-8.39-3.3-11.59-6.38l-1.2-1.16c-.39-.39-.7-.83-1.06-1.25l-1.02-1.28-.51-.64-.42-.68-1.66-2.72c-.46-.94-.98-1.87-1.35-2.84-1.65-3.84-2.62-7.81-3.17-11.73-1.1-7.88-.59-15.59,.51-23.08,1.14-7.49,3.01-14.78,5.35-21.88,2.35-7.1,5.17-14.02,8.48-20.73,3.32-6.71,7.08-13.22,11.69-19.37,1.16-1.53,2.36-3.05,3.68-4.51,1.3-1.47,2.68-2.91,4.22-4.28,1.54-1.37,3.2-2.68,5.18-3.84,1.97-1.13,4.31-2.17,7.25-2.41,1.47-.08,3.07,.03,4.58,.56,.77,.22,1.46,.59,2.16,.95,.66,.39,1.28,.83,1.84,1.29,1.09,.94,1.99,1.98,2.68,3.01,.35,.52,.7,1.03,.99,1.61,.3,.57,.61,1.13,.82,1.74,.97,2.39,1.33,4.95,1.27,7.31-.07,2.38-.5,4.6-1.13,6.64-1.26,4.1-3.13,7.66-5.18,10.98-2.05,3.32-4.34,6.37-6.7,9.31-9.54,11.68-20.51,21.51-31.63,31.06-6.06,4.17-12.24,8.13-18.54,11.88-3.15,1.87-6.32,3.7-9.51,5.49-3.22,1.74-6.42,3.51-9.7,5.12Z" style="fill:#1e1b1c;"/><path d="M1054.96,328.03c7.24-7.54,14.39-14.99,21.22-22.55,.86-.94,1.89-1.67,2.88-2.44,.99-.78,1.92-1.63,2.86-2.46,1.87-1.67,3.72-3.37,5.52-5.1,3.59-3.46,7.04-7.04,10.08-10.79,1.51-1.87,2.94-3.79,4.14-5.73,1.21-1.93,2.2-3.92,2.75-5.74,.57-1.85,.55-3.33,.16-4.23-.16-.44-.63-1.08-.77-1.17-.07-.04-.05-.05,0-.01,.06,0,.08,.02,.01,0-.16,0-.75,.17-1.45,.58-.7,.4-1.48,1-2.25,1.69-1.55,1.38-3.06,3.15-4.47,5.01-2.82,3.76-5.28,8-7.45,12.37-4.29,8.77-7.54,18.24-9.02,27.72-.71,4.72-.98,9.49-.35,13.89,.3,2.2,.83,4.29,1.63,6.13,.77,1.87,1.9,3.46,3.14,4.66,1.26,1.2,2.72,2,4.47,2.45,1.74,.45,3.75,.54,5.86,.31,2.12-.25,4.32-.77,6.51-1.47,1.1-.35,2.21-.73,3.29-1.21,.54-.23,1.06-.54,1.6-.77,.54-.23,1.11-.44,1.68-.62,2.34-.66,4.67-1.49,7.01-2.38,2.35-.88,4.67-1.88,7.01-2.9,2.33-1.03,4.65-2.14,6.95-3.3,2.33-1.13,4.61-2.35,6.91-3.59-1.65,2.03-3.43,3.95-5.23,5.87-1.83,1.88-3.72,3.72-5.67,5.51-3.91,3.58-8.11,6.91-12.76,9.88-1.14,.77-2.47,1.2-3.77,1.66-.66,.22-1.31,.47-1.96,.72-.66,.24-1.33,.45-2,.67-2.69,.85-5.5,1.55-8.49,1.89-2.98,.32-6.19,.26-9.43-.56-3.23-.8-6.41-2.52-8.86-4.87-4.94-4.75-7.01-10.95-7.8-16.67-.81-5.79-.43-11.38,.37-16.79,.83-5.41,2.17-10.65,3.85-15.75,1.69-5.1,3.71-10.06,6.09-14.89,2.39-4.82,5.09-9.51,8.43-13.97,1.69-2.22,3.51-4.4,5.79-6.44,1.14-1.02,2.39-2.01,3.91-2.89,1.52-.87,3.36-1.7,5.77-1.9,1.21-.07,2.54,.03,3.81,.47,1.28,.4,2.4,1.1,3.32,1.86,.89,.77,1.62,1.61,2.16,2.42,.55,.79,1.06,1.72,1.44,2.66,.77,1.9,1.06,3.93,1,5.77-.05,1.85-.39,3.55-.86,5.09-.95,3.1-2.34,5.71-3.83,8.13-1.5,2.43-3.15,4.63-4.86,6.75-6.87,8.42-14.71,15.4-22.61,22.23-4.45,2.82-8.99,5.46-13.6,7.94-4.61,2.49-9.31,4.8-14.11,6.88Z" style="fill:#1e1b1c;"/><path d="M1365.87,684.8l-.26,1.71c-.07,.57-.21,1.14-.18,1.71,0,.58-.01,1.15,.01,1.72l.03,.86,.13,.85,.31,1.68c.09,.56,.34,1.09,.51,1.63,.19,.53,.34,1.07,.6,1.58,.26,.5,.51,1,.78,1.49,2.17,3.92,5.7,6.71,9.17,8.52,.84,.51,1.79,.82,2.65,1.21,.88,.36,1.81,.58,2.66,.89,.45,.09,.89,.23,1.31,.39,.42,.16,.84,.36,1.28,.46,.87,.26,1.75,.55,2.67,.58l1.36,.16,1.38-.03c.89,.04,1.9-.1,2.9-.21,1.99-.3,4-.7,5.99-1.33,8.01-2.41,15.7-6.95,22.92-12.08,7.21-5.22,14.03-11.15,20.55-17.42l-.3,.32c.66-.78,1.45-1.78,2.14-2.71,.72-.95,1.41-1.93,2.09-2.92,1.34-1.98,2.6-4.02,3.73-6.09,2.25-4.14,4.02-8.49,4.8-12.73,.77-4.25,.33-8.2-1.56-11.32-1.84-3.17-5.35-5.59-9.39-7.37l-1.98-1.52c.35,.47,.84,.9,1.37,1.2,.11,.07,.3,.16,.36,.18l.07,.03,.14,.06c.1,.04,.19,.07,.29,.1l.07,.02h.03s.06,.03,.08,.03h-.06s-.1-.02-.19-.03l-.27-.03c-.39-.04-.87-.06-1.34-.08-.95-.03-1.96-.02-2.97,0-2.03,.06-4.09,.21-6.14,.44-4.12,.44-8.23,1.16-12.26,2.14-8.06,1.95-15.86,4.93-22.86,9.1-3.5,2.08-6.79,4.47-9.8,7.15-.72,.7-1.4,1.45-2.12,2.14-.75,.67-1.56,1.28-2.36,1.92-1.58,1.29-3.14,2.63-4.7,4.03-3.09,2.82-6.09,5.97-8.51,9.6-2.42,3.62-4.11,7.72-5.13,11.97Zm0,0c1-4.25,2.01-8.5,3.15-12.85,.56-2.18,1.21-4.36,1.93-6.57,.76-2.18,1.62-4.36,2.64-6.48,1.04-2.11,2.23-4.16,3.59-6.11,.7-.95,1.37-1.95,2.19-2.79,.81-.86,1.76-1.58,2.65-2.35,3.54-3.1,7.33-5.89,11.35-8.26,8.02-4.78,16.73-8.07,25.63-10.23,4.46-1.08,8.97-1.87,13.54-2.36,2.28-.25,4.58-.42,6.92-.49,1.17-.04,2.35-.05,3.58,0,.62,.02,1.24,.05,1.93,.11l.54,.06c.18,.02,.38,.04,.62,.09l.35,.06,.48,.11,.12,.03,.18,.05c.16,.05,.32,.11,.48,.17l.24,.1,.12,.05c.07,.03,.27,.13,.4,.21,.58,.33,1.13,.81,1.54,1.32l-1.97-1.52c2.62,1.22,5.26,2.5,7.68,4.43,2.42,1.85,4.72,4.16,6.36,6.99,1.68,2.79,2.72,5.97,3.12,9.1,.4,3.14,.24,6.22-.29,9.11-1.08,5.79-3.28,10.97-5.87,15.76-1.31,2.39-2.73,4.7-4.24,6.93-.76,1.11-1.54,2.21-2.35,3.29-.83,1.1-1.61,2.11-2.6,3.27l-.13,.15-.17,.17c-6.78,6.52-13.92,12.74-21.67,18.35-3.89,2.78-7.95,5.39-12.23,7.73-4.28,2.32-8.81,4.36-13.66,5.81-2.41,.75-4.94,1.28-7.51,1.66-1.3,.15-2.58,.32-4,.3l-2.08,.02-2.08-.22c-2.75-.35-5.56-.83-8.08-2.08-.62-.33-1.19-.74-1.77-1.12-.57-.4-1.18-.73-1.68-1.21-1.04-.91-2.11-1.76-2.96-2.83-3.62-4.06-5.7-9.05-6.43-13.91l-.27-1.81c-.08-.6-.07-1.21-.13-1.81-.02-.6-.1-1.19-.09-1.78l.05-1.77v-.87l.11-.87c.08-.58,.11-1.16,.17-1.73,.17-1.14,.42-2.28,.61-3.41Z" style="fill:#1e1b1c;"/><path d="M1458.71,642.21c-3,.32-5.74,1.64-8.11,3.33-.3,.21-.62,.38-.9,.62l-.83,.72c-.55,.48-1.11,.94-1.64,1.43l-1.47,1.61-.73,.8c-.25,.26-.48,.53-.69,.84-.85,1.19-1.74,2.32-2.55,3.52l-2.19,3.76c-.39,.6-.65,1.3-.97,1.95l-.91,1.98-.91,1.97c-.3,.66-.51,1.37-.76,2.05-4.09,10.93-6.2,22.55-7.59,34.2-.28,2.94-.83,5.82-1.34,8.72-.48,2.83-.96,6-1.43,9.02-.26,1.52-.42,3.06-.76,4.56l-.95,4.52-.96,4.52-1.16,4.46c-3.08,11.9-7.13,23.5-11.88,34.76-4.76,11.26-10.22,22.19-16.21,32.8-6.01,10.6-12.5,20.92-19.56,30.85l-1.32,1.87-1.41,1.91c-.96,1.26-1.94,2.5-2.95,3.71-2.02,2.43-4.16,4.76-6.4,6.99-4.48,4.46-9.39,8.49-14.64,12.02-5.19,3.44-10.42,6.61-15.97,9.5-5.54,2.86-11.33,5.43-17.57,7.22-3.12,.89-6.37,1.57-9.75,1.88-3.38,.3-6.92,.25-10.49-.56-3.55-.79-7.1-2.32-10.07-4.62-.71-.6-1.49-1.15-2.12-1.82-.66-.65-1.34-1.31-1.84-1.94l-1.63-1.91c-.56-.62-1.01-1.37-1.52-2.05-1.03-1.35-1.87-2.9-2.73-4.42-.41-.78-.74-1.62-1.1-2.43-.17-.41-.37-.81-.51-1.24l-.41-1.3c-1.09-3.45-1.55-7.25-1.11-10.9,.4-3.65,1.52-7.11,3-10.25,1.53-3.11,3.41-5.9,5.42-8.51,4.12-5.12,8.81-9.42,13.69-13.34,4.88-3.91,9.99-7.4,15.17-10.69,10.38-6.56,21.13-12.27,31.96-17.7,21.68-10.81,43.81-20.33,65.62-30.24,11.22-4.26,22.35-8.64,33.25-13.48,5.45-2.42,10.81-5.02,15.95-7.99,2.55-1.5,5.09-3.06,7.42-4.9,2.31-1.84,4.52-3.87,6.06-6.48-1.08,2.83-3.01,5.31-5.09,7.54-2.09,2.24-4.42,4.23-6.79,6.16-4.8,3.78-9.87,7.18-15.02,10.4-10.33,6.42-21,12.15-31.64,17.85-21.93,9.96-43.96,19.44-65.29,30.08-10.64,5.33-21.14,10.92-31.08,17.2-4.95,3.15-9.79,6.45-14.28,10.05-4.48,3.6-8.67,7.49-12.09,11.74-1.65,2.15-3.13,4.36-4.26,6.65-1.07,2.3-1.8,4.63-2.06,6.95-.3,2.32,0,4.63,.71,6.89l.25,.85c.08,.28,.24,.56,.35,.84,.26,.55,.46,1.12,.75,1.67,.64,1.08,1.2,2.19,2.01,3.23,.39,.52,.71,1.07,1.16,1.57l1.29,1.52c.44,.55,.85,.92,1.25,1.33,.39,.44,.87,.73,1.29,1.12,1.79,1.39,3.88,2.28,6.18,2.81,4.63,1.05,10.06,.32,15.34-1.17,5.31-1.52,10.58-3.82,15.7-6.47,5.11-2.65,10.17-5.72,14.99-8.92,4.72-3.17,9.13-6.8,13.17-10.82,2.02-2.01,3.94-4.11,5.76-6.3,.91-1.1,1.79-2.21,2.65-3.35l1.27-1.72,1.28-1.81c6.86-9.65,13.17-19.7,19.01-29.99,5.83-10.3,11.12-20.9,15.71-31.77,4.59-10.87,8.48-22.01,11.41-33.37l1.11-4.26,.91-4.3,.9-4.3c.32-1.43,.47-2.88,.72-4.32,.45-2.92,.9-5.68,1.32-8.79,.4-3.04,.75-6.09,1.37-9.09,.13-.75,.32-1.5,.54-2.24l.61-2.23,1.22-4.46c.73-2.98,1.81-5.9,2.8-8.82,.52-1.46,.96-2.93,1.53-4.37l1.8-4.29,.9-2.14c.29-.71,.6-1.42,.98-2.11l2.17-4.13c.37-.68,.69-1.38,1.11-2.04l1.27-1.97,1.27-1.96c.43-.65,.81-1.32,1.32-1.92l2.91-3.66c1.05-1.16,2.18-2.25,3.26-3.36,.26-.28,.56-.54,.87-.78l.92-.73,1.83-1.45c.65-.43,1.33-.83,1.99-1.24l.99-.61c.33-.2,.7-.34,1.05-.51,2.75-1.39,5.84-2.26,8.86-2.04Z" style="fill:#1e1b1c;"/><path d="M1200.31,676.73l-.26,1.71c-.07,.57-.21,1.14-.18,1.71,0,.58-.01,1.15,.01,1.72l.03,.86,.13,.85,.31,1.68c.09,.56,.34,1.09,.51,1.63,.19,.53,.34,1.07,.6,1.58,.26,.5,.51,1,.78,1.49,2.17,3.92,5.7,6.71,9.17,8.52,.84,.51,1.79,.82,2.65,1.21,.88,.36,1.81,.58,2.66,.89,.45,.09,.89,.23,1.31,.39,.42,.16,.84,.36,1.28,.46,.87,.26,1.75,.55,2.67,.58l1.36,.16,1.38-.03c.89,.04,1.9-.1,2.9-.21,1.99-.3,4-.7,5.99-1.33,8.01-2.41,15.7-6.95,22.92-12.08,7.21-5.22,14.03-11.15,20.55-17.42l-.3,.32c.66-.78,1.45-1.78,2.14-2.71,.72-.95,1.41-1.93,2.09-2.92,1.34-1.98,2.6-4.02,3.73-6.09,2.25-4.14,4.02-8.49,4.8-12.73,.77-4.25,.33-8.2-1.56-11.32-1.84-3.17-5.35-5.59-9.39-7.37l-1.98-1.52c.35,.47,.84,.9,1.37,1.2,.11,.07,.3,.16,.36,.18l.07,.03,.14,.06c.1,.04,.19,.07,.29,.1l.07,.02h.03s.06,.03,.08,.03h-.06s-.1-.02-.19-.03l-.27-.03c-.39-.04-.87-.06-1.34-.08-.95-.03-1.96-.02-2.97,0-2.03,.06-4.09,.21-6.14,.44-4.12,.44-8.23,1.16-12.26,2.14-8.06,1.95-15.86,4.93-22.86,9.1-3.5,2.08-6.8,4.47-9.8,7.15-.72,.7-1.4,1.45-2.12,2.14-.75,.67-1.56,1.28-2.36,1.92-1.58,1.29-3.14,2.63-4.7,4.03-3.09,2.82-6.09,5.97-8.51,9.6-2.42,3.62-4.11,7.72-5.13,11.97Zm0,0c1-4.25,2.01-8.5,3.15-12.85,.56-2.18,1.21-4.36,1.93-6.57,.76-2.18,1.62-4.36,2.64-6.48,1.04-2.11,2.23-4.16,3.59-6.11,.7-.95,1.37-1.95,2.19-2.79,.81-.86,1.76-1.58,2.65-2.35,3.54-3.1,7.33-5.89,11.35-8.26,8.02-4.78,16.73-8.07,25.63-10.23,4.46-1.08,8.97-1.87,13.54-2.36,2.28-.25,4.58-.42,6.92-.49,1.17-.04,2.35-.05,3.58,0,.62,.02,1.24,.05,1.93,.11l.54,.06c.18,.02,.38,.04,.62,.09l.35,.06,.48,.11,.12,.03,.18,.05c.16,.05,.32,.11,.48,.17l.24,.1,.12,.05c.07,.03,.27,.13,.4,.21,.58,.33,1.13,.81,1.54,1.32l-1.97-1.52c2.62,1.22,5.26,2.5,7.68,4.43,2.42,1.85,4.72,4.16,6.36,6.99,1.68,2.79,2.72,5.97,3.12,9.1,.4,3.14,.24,6.22-.29,9.11-1.08,5.79-3.28,10.97-5.87,15.76-1.31,2.39-2.73,4.7-4.24,6.93-.76,1.11-1.54,2.21-2.35,3.29-.83,1.1-1.61,2.11-2.6,3.27l-.13,.15-.17,.17c-6.78,6.52-13.92,12.74-21.67,18.35-3.89,2.78-7.95,5.39-12.23,7.73-4.28,2.32-8.81,4.36-13.66,5.81-2.41,.75-4.94,1.28-7.51,1.66-1.3,.15-2.58,.32-4,.3l-2.08,.02-2.08-.22c-2.75-.35-5.56-.83-8.08-2.08-.62-.33-1.19-.74-1.77-1.12-.57-.4-1.18-.73-1.68-1.21-1.04-.91-2.11-1.76-2.96-2.83-3.62-4.06-5.7-9.05-6.43-13.91l-.27-1.81c-.08-.6-.07-1.21-.13-1.81-.02-.6-.1-1.19-.09-1.78l.05-1.77v-.87l.11-.87c.08-.58,.11-1.16,.17-1.73,.17-1.14,.42-2.28,.61-3.41Z" style="fill:#1e1b1c;"/><path d="M1293.14,634.14c-1.74,.1-3.39,.7-4.94,1.4-1.56,.69-2.99,1.64-4.34,2.64l-1.94,1.63c-.64,.55-1.17,1.22-1.76,1.82-1.21,1.17-2.16,2.59-3.17,3.93-3.92,5.5-6.52,11.82-8.72,18.18-4.04,12.96-5.97,26.52-7.05,40.11-.38,3.51-1.03,7.06-1.66,10.56-.8,3.47-1.46,6.97-2.26,10.44-.92,3.43-1.73,6.9-2.74,10.3l-1.56,5.09c-.52,1.7-1.03,3.4-1.64,5.06-4.57,13.42-10.24,26.4-16.66,38.96-6.41,12.57-13.68,24.65-21.53,36.35-1.97,2.93-3.98,5.8-6.05,8.69-2.15,2.95-4.45,5.8-6.9,8.51-4.91,5.41-10.39,10.31-16.37,14.53-3.03,2.13-6,4-9.06,5.85-3.06,1.84-6.18,3.61-9.39,5.26-6.43,3.28-13.19,6.17-20.63,7.84-3.72,.82-7.63,1.28-11.7,1.07-2.04-.14-4.1-.42-6.15-.98-2.04-.59-4.08-1.32-5.96-2.42-.48-.25-.94-.53-1.39-.84-.45-.3-.91-.6-1.34-.92-.83-.69-1.71-1.33-2.45-2.1-.38-.37-.77-.75-1.13-1.13l-1.02-1.17c-.65-.81-1.31-1.62-1.89-2.52-1.17-1.77-2.2-3.72-2.89-5.82-.7-2.09-1.1-4.3-1.2-6.48-.1-2.19,.11-4.34,.51-6.39,.42-2.05,1.05-3.99,1.79-5.84,1.49-3.7,3.46-7,5.6-10.08,4.32-6.12,9.33-11.38,14.55-16.28,5.23-4.89,10.71-9.41,16.3-13.73,5.59-4.31,11.3-8.42,17.09-12.39,11.57-7.94,23.41-15.39,35.36-22.6,11.95-7.21,24.02-14.18,36.13-21.04,24.22-13.72,48.66-26.97,72.74-40.67,12.41-6.19,24.73-12.53,36.79-19.29,6.02-3.39,11.98-6.9,17.67-10.77,2.86-1.92,5.65-3.95,8.28-6.17,1.31-1.11,2.57-2.29,3.75-3.54,1.18-1.25,2.27-2.6,3.12-4.12-1.29,3.26-3.53,6.08-5.86,8.69-2.37,2.61-4.92,5.04-7.55,7.37-5.28,4.64-10.86,8.9-16.5,13.05-11.32,8.26-23.03,15.89-34.74,23.47-24.22,13.77-48.64,27.01-72.76,40.68-12.06,6.83-24.06,13.76-35.89,20.9-11.83,7.14-23.52,14.5-34.86,22.28-11.3,7.8-22.35,15.99-32.21,25.18-4.9,4.59-9.49,9.47-13.19,14.71-1.82,2.62-3.41,5.34-4.51,8.08-.54,1.37-.98,2.75-1.26,4.1-.27,1.35-.38,2.68-.32,3.96,.11,2.57,.91,4.97,2.42,7.21,.35,.57,.8,1.1,1.23,1.65l.69,.8,.72,.7c.45,.5,1,.86,1.5,1.29,.26,.19,.54,.36,.81,.55,.26,.19,.54,.36,.84,.51,2.26,1.29,4.92,1.95,7.79,2.14,2.88,.14,5.92-.18,8.98-.85,6.14-1.37,12.28-3.93,18.21-6.97,2.97-1.52,5.9-3.17,8.79-4.92,2.88-1.74,5.79-3.58,8.44-5.45,5.38-3.79,10.31-8.2,14.73-13.08,2.2-2.44,4.28-5.01,6.22-7.67,1.98-2.75,3.95-5.58,5.86-8.41,7.63-11.37,14.71-23.14,20.92-35.32,6.23-12.17,11.7-24.72,16.09-37.6,.59-1.6,1.08-3.22,1.58-4.85l1.5-4.87c.97-3.26,1.74-6.56,2.62-9.83,.76-3.3,1.42-6.62,2.08-9.94,.47-3.36,.86-6.68,1.55-10.03l2.15-10.42c.32-1.74,.81-3.45,1.26-5.17l1.37-5.15,.68-2.57,.84-2.54,1.68-5.07c.51-1.7,1.22-3.35,1.9-5l2.07-4.93c3.15-6.42,6.7-12.72,11.57-18.02,1.27-1.28,2.46-2.61,3.92-3.69,.71-.55,1.36-1.16,2.11-1.65l2.27-1.43c1.57-.85,3.18-1.63,4.89-2.12,1.7-.49,3.46-.84,5.21-.68Z" style="fill:#1e1b1c;"/><path d="M1490.49,688.84l1.77-.8,1.66-.99c1.1-.65,2.13-1.45,3.18-2.16l3.04-2.37,2.96-2.47c3.92-3.34,7.68-6.85,11.39-10.42,7.38-7.17,14.51-14.58,21.4-22.2,1.74-1.89,3.63-3.61,5.51-5.35,1.85-1.77,3.64-3.6,5.45-5.42l5.33-5.53,5.23-5.62c6.91-7.55,13.58-15.31,19.86-23.34,6.28-8.03,12.2-16.32,17.43-24.94,5.18-8.61,9.84-17.6,12.53-26.87,.78-2.31,1.13-4.63,1.65-6.95,.4-2.48,.74-4.96,1-7.42,.26-2.46,.44-4.91,.49-7.3,.04-2.38-.04-4.74-.39-6.84-.17-1.04-.4-2.03-.7-2.83-.29-.8-.66-1.38-.91-1.64-.26-.28-.3-.24-.55-.33-.28-.04-.88-.03-1.66,.18-1.57,.42-3.54,1.51-5.4,2.77-1.88,1.29-3.74,2.81-5.56,4.43-3.63,3.25-7.07,6.9-10.38,10.68-3.31,3.79-6.5,7.74-9.58,11.79-3.08,4.04-6.1,8.19-8.88,12.34-2.8,4.19-5.41,8.53-7.95,12.92-5,8.84-9.6,17.95-13.75,27.27-4.17,9.32-7.98,18.8-11.32,28.43-1.71,4.81-3.22,9.67-4.69,14.54-1.39,4.89-2.76,9.78-3.86,14.72-1.11,4.93-2.12,9.88-2.78,14.83-.2,1.24-.33,2.47-.47,3.71-.14,1.23-.29,2.47-.33,3.7-.15,2.47-.11,4.91-.34,7.34-.37,4.83-.29,9.69,.84,14.03,1,4.08,3.78,8.53,6.9,11.71,1.62,1.57,3.48,2.83,5.57,3.39,1.05,.3,2.15,.38,3.28,.36,1.13-.08,2.27-.3,3.41-.65,2.28-.74,4.47-1.99,6.49-3.53,2.01-1.55,3.9-3.32,5.56-5.32-1.25,2.28-2.8,4.42-4.59,6.38-1.8,1.95-3.87,3.73-6.35,5.06-1.25,.64-2.6,1.15-4.03,1.48-1.44,.28-2.95,.41-4.45,.25-3.03-.28-5.87-1.59-8.25-3.25-2.41-1.67-4.42-3.72-6.23-5.87-.85-1.11-1.74-2.12-2.52-3.48-.38-.65-.84-1.29-1.15-1.96l-.92-2.02c-2.31-5.45-3.15-11.07-3.56-16.55-.07-1.37-.07-2.74-.03-4.11,.04-1.37,.24-2.7,.34-4.06,.1-1.36,.28-2.68,.42-4.02,.14-1.34,.29-2.67,.5-3.99,.72-5.31,1.77-10.51,2.94-15.67,1.15-5.17,2.57-10.24,4.01-15.31,1.52-5.04,3.09-10.06,4.84-15,3.44-9.92,7.35-19.66,11.64-29.23,4.27-9.58,9.01-18.97,14.19-28.14,2.64-4.57,5.36-9.09,8.31-13.51,2.99-4.45,6.06-8.67,9.25-12.86,3.19-4.19,6.5-8.3,10-12.3,3.51-4,7.16-7.9,11.25-11.56,2.04-1.83,4.2-3.59,6.58-5.23,2.42-1.61,4.97-3.19,8.41-4.16,1.72-.46,3.74-.76,6.02-.38,2.28,.38,4.65,1.68,6.12,3.34,1.52,1.64,2.39,3.39,2.99,5.01,.6,1.63,.94,3.18,1.19,4.69,.49,3.01,.56,5.85,.51,8.63-.05,2.78-.26,5.5-.54,8.18-.29,2.68-.66,5.33-1.07,7.96-.58,2.73-1.05,5.54-1.92,8.15-3.1,10.63-8.12,20.17-13.57,29.26-5.5,9.08-11.64,17.66-18.11,25.93-12.96,16.53-27.26,31.83-42.27,46.38-8.07,6.69-16.33,13.14-24.9,19.15-4.32,2.96-8.69,5.86-13.18,8.55l-3.43,1.93-3.5,1.81c-2.39,1.07-4.78,2.26-7.38,2.67Z" style="fill:#1e1b1c;"/><path d="M1617.08,665.86c3.65-.81,7.12-2.15,10.58-3.5,3.46-1.33,6.86-2.78,10.2-4.34,6.68-3.08,13.19-6.45,19.27-10.3,1.54-.92,3.15-1.67,4.75-2.46,1.58-.82,3.11-1.72,4.61-2.65,3.02-1.85,5.84-3.91,8.55-6.06,2.63-2.22,5.09-4.59,7.21-7.15,2.06-2.59,3.79-5.34,5.05-8.24,1.19-2.91,1.8-5.96,1.92-9.05l-.04-2.33c-.05-.78-.21-1.56-.3-2.34l-.15-1.17-.26-1.06c-.07-.36-.18-.7-.3-1.02-.12-.32-.21-.68-.35-.98-1.07-2.5-2.64-4.29-4.95-5.37-1.15-.54-2.48-.92-3.9-1.14-1.44-.21-2.98-.24-4.55-.17-6.37,.4-13.09,2.72-19.38,5.74-6.32,3.05-12.36,6.89-18.01,11.24-5.64,4.35-10.9,9.22-15.6,14.53-4.7,5.3-8.84,11.08-12.07,17.23-3.21,6.14-5.48,12.7-6.14,19.31-.32,3.3-.23,6.59,.31,9.8,.15,.8,.26,1.61,.49,2.39,.2,.79,.38,1.58,.65,2.35,.24,.77,.49,1.55,.82,2.3l.45,1.13c.16,.38,.37,.79,.55,1.18,2.91,6.4,6.59,12.34,11.15,17.28,2.35,2.38,4.84,4.6,7.6,6.37,1.41,.82,2.78,1.73,4.31,2.32l1.12,.48,1.15,.39c.77,.26,1.49,.64,2.26,.91,6,2.71,13.01,3.61,20.13,3.2,3.57-.19,7.16-.76,10.73-1.6,3.57-.82,7.13-1.9,10.54-3.43-1.42,1.23-3,2.28-4.6,3.29-1.61,1-3.26,1.94-4.97,2.8-3.42,1.7-7.01,3.15-10.77,4.23-7.49,2.16-15.77,2.84-24,1.08-1.04-.18-2.02-.55-3-.92-.49-.2-.98-.38-1.45-.6l-1.4-.71c-1.89-.89-3.69-1.94-5.47-3.03-3.51-2.25-6.61-4.99-9.46-7.91-5.55-5.99-9.74-12.87-12.98-19.99-.21-.45-.43-.87-.63-1.34l-.58-1.45c-.41-.96-.73-1.96-1.05-2.95-.35-.99-.59-2.01-.84-3.02-.28-1.01-.43-2.05-.63-3.07-.69-4.13-.8-8.33-.4-12.43,.83-8.22,3.57-15.95,7.23-22.96,3.68-7.02,8.29-13.41,13.44-19.23,5.16-5.82,10.86-11.09,16.99-15.82,6.14-4.72,12.7-8.91,19.77-12.32,7.08-3.35,14.64-6.14,23.16-6.71,2.14-.09,4.33-.06,6.57,.27,2.24,.35,4.54,.97,6.75,2.01,2.21,1.02,4.3,2.56,5.98,4.41,1.69,1.85,3.01,3.98,3.89,6.17,.24,.54,.4,1.09,.6,1.64,.2,.55,.37,1.1,.49,1.65l.4,1.65,.23,1.59c.13,1.06,.33,2.12,.39,3.19l.06,3.25c-.15,4.33-1.05,8.66-2.69,12.64-1.69,3.94-3.96,7.51-6.54,10.73-2.62,3.17-5.55,5.96-8.6,8.54-3.1,2.48-6.3,4.8-9.63,6.84-.82,.54-1.67,1.01-2.5,1.5-.85,.47-1.66,1.03-2.51,1.48-1.67,.98-3.33,2-5.14,2.69-3.61,1.41-7.28,2.59-10.95,3.66-3.67,1.07-7.35,2.04-11.08,2.8-3.72,.78-7.45,1.44-11.19,1.95-1.88,.23-3.76,.44-5.64,.58-1.88,.14-3.78,.27-5.66,.09Z" style="fill:#1e1b1c;"/><circle cx="1125.81" cy="234.15" r="9.07" style="fill:none; stroke:#1e1b1c; stroke-miterlimit:10; stroke-width:10px;"/><circle cx="1150.8" cy="565.65" r="9.07" style="fill:none; stroke:#1e1b1c; stroke-miterlimit:10; stroke-width:10px;"/><circle cx="603.72" cy="718.03" r="6.42" style="fill:none; stroke:#1e1b1c; stroke-miterlimit:10; stroke-width:10px;"/><g><path d="M652.57,826.87c2.5-8.81,12.2-14.93,21.23-13.38,1.93,.33,3.85,.99,5.36,2.25,3.25,2.71,3.8,7.41,4.07,11.63,.85,12.97,1.3,25.98,1.34,38.98-6.59,3.4-14.04,5.88-21.34,4.61s-14.15-7.28-14.32-14.69c-.11-4.92,2.67-9.57,6.42-12.75,4.17-3.54,9.65-5.57,15.12-5.33s10.84,2.82,14.24,7.11" style="fill:none; stroke:#000; stroke-miterlimit:10; stroke-width:5px;"/><g><path d="M428.31,827.88c4.95,14.75,11.56,28.95,19.67,42.23,2.91-11.94,5.92-24.12,12.49-34.51l15.04,29.45c3.08-8.73,8.33-25.94,11.4-34.67" style="fill:none; stroke:#000; stroke-miterlimit:10; stroke-width:5px;"/><path d="M502.35,831.62c1.52,13.62,2.19,27.4,1.98,41.15" style="fill:none; stroke:#000; stroke-miterlimit:10; stroke-width:5px;"/><path d="M532.6,793.38c-3.28,17.6-4.95,35.5-4.99,53.4-.01,5.22,.14,10.57,2.03,15.43s5.86,9.23,10.98,10.21c3.28,.63,6.99-.34,9.06-2.96" style="fill:none; stroke:#000; stroke-miterlimit:10; stroke-width:5px;"/><path d="M515.6,821.15c10.81,.12,21.6,1.1,32.26,2.92" style="fill:none; stroke:#000; stroke-miterlimit:10; stroke-width:5px;"/><path d="M566.15,793.38v79.95" style="fill:none; stroke:#000; stroke-miterlimit:10; stroke-width:5px;"/><path d="M565.81,832.61c2.24-4.24,5.79-7.78,10.05-10,2.56-1.33,5.42-2.21,8.3-2.05,5.97,.32,10.98,5.05,13.41,10.51,2.44,5.46,2.8,11.58,3.12,17.55,.39,7.21,.78,16.85,1.17,24.07" style="fill:none; stroke:#000; stroke-miterlimit:10; stroke-width:5px;"/></g><g><path d="M149.02,830.48c.79-7.56,6.09-14.47,13.19-17.18s15.66-1.12,21.29,3.97c6.85,6.18,8.8,16.15,8.77,25.38s-1.63,18.51-.24,27.63" style="fill:none; stroke:#000; stroke-miterlimit:10; stroke-width:5px;"/><path d="M191.4,838.88c1.72,.2-2.85-1.88-4.56-2.16-9.88-1.64-15.97,.32-22.45,5.49-3.41,2.72-5.48,7.06-5.85,11.41s1.51,9,5.23,11.28c3.5,2.14,7.87,1.94,11.92,2.53,2.43,.35,4.87,1,7.3,.68s8.18-1.75,8.47-4.19" style="fill:none; stroke:#000; stroke-miterlimit:10; stroke-width:5px;"/></g><g><path d="M281.16,807.16c1.77-5.39-.05-11.77-4.4-15.41s-10.95-4.32-15.94-1.64c-8.18,4.39-10.07,15.12-10.66,24.39-1.13,17.95-.84,35.96-.55,53.94" style="fill:none; stroke:#000; stroke-miterlimit:10; stroke-width:5px;"/><path d="M239.3,835.49c10.58,.56,21.22,.16,31.73-1.19" style="fill:none; stroke:#000; stroke-miterlimit:10; stroke-width:5px;"/><path d="M381.29,791.33c-1.08,8.9-1.73,17.85-2.38,26.8-1.24,17.04-2.48,34.08-3.72,51.12" style="fill:none; stroke:#000; stroke-miterlimit:10; stroke-width:5px;"/><path d="M311.2,833.68c-8.69-2.05-19-3.72-25.56,2.33-1.74,1.61-3.05,3.66-3.94,5.86-3.89,9.57,1.3,21.81,10.87,25.68,9.57,3.87,21.81-1.33,25.67-10.91,1.72-4.26,1.85-9.27-.2-13.38s-9.08-11.05-13.68-10.95" style="fill:none; stroke:#000; stroke-miterlimit:10; stroke-width:5px;"/><path d="M354.84,836.38c-6.51-5.09-17.35-3-21.5,4.15-2.55,4.39-2.63,9.76-2.28,14.83,.1,1.47,.64,3.3,1.21,4.66,.88,2.1,2.3,3.35,4.27,4.49,5.74,3.34,13.3,3.48,18.96,.02s9.02-10.5,7.77-17.02-9.43-13.68-16.06-13.9" style="fill:none; stroke:#000; stroke-miterlimit:10; stroke-width:5px;"/></g><g><path d="M731.98,794.38c-.52,25.98-.3,51.97,.66,77.93l.42-27.89c.04-2.44,.09-4.96,1.07-7.2,1.24-2.84,3.8-4.84,6.28-6.7,3.34-2.51,6.81-5.01,10.82-6.17s8.73-.73,11.79,2.13c2.86,2.67,3.7,6.81,4.35,10.66,1.87,11.09,3.37,22.24,4.5,33.42" style="fill:none; stroke:#000; stroke-miterlimit:10; stroke-width:5px;"/><path d="M792.47,839.63c7.95,.86,16.05,.35,23.83-1.52,2.01-.48,4.32-1.36,4.83-3.36,.73-2.82-2.59-4.88-5.32-5.9-4.42-1.65-9.33-3.31-13.73-1.61-1.84,.71-3.42,1.97-4.83,3.36-8.68,8.55-10.77,23.63-3.32,33.27,7.45,9.64,24.21,10.71,31.69,1.09" style="fill:none; stroke:#000; stroke-miterlimit:10; stroke-width:5px;"/><path d="M845.16,839.06c.76-5.87,4.28-11.57,9.72-13.9,5.44-2.33,12.65-.48,15.47,4.72,1.35,2.47,1.64,5.37,1.9,8.17,.99,10.62,1.91,21.24,2.77,31.86" style="fill:none; stroke:#000; stroke-miterlimit:10; stroke-width:5px;"/><path d="M872.5,847.29c-4.95-3.69-12.23-3.9-17.39-.51-2.4,1.58-4.32,3.81-5.77,6.29-2.93,4.98-3.74,12.05,.45,16.04,1.82,1.73,4.31,2.6,6.79,2.96,7.06,1.02,14.56-2.05,18.88-7.73" style="fill:none; stroke:#000; stroke-miterlimit:10; stroke-width:5px;"/><path d="M894.72,824.56v46.98" style="fill:none; stroke:#000; stroke-miterlimit:10; stroke-width:5px;"/><path d="M894.2,834.03c4.88-10.12,16.97-16.21,28.01-14.1" style="fill:none; stroke:#000; stroke-miterlimit:10; stroke-width:5px;"/><path d="M942.49,790.6c-5.76,18.2-6.85,37.53-6.86,56.61,0,5.17,.1,10.49,2.05,15.28s6.18,9,11.33,9.42c5.15,.42,10.57-4.22,9.71-9.32" style="fill:none; stroke:#000; stroke-miterlimit:10; stroke-width:5px;"/><path d="M928.57,813.4l23.91,2.7" style="fill:none; stroke:#000; stroke-miterlimit:10; stroke-width:5px;"/></g><g><path d="M1036.39,836.42c-1.78-4.68-8.08-5.72-12.95-4.53-8.07,1.98-15.05,8.41-17.04,16.47-1.99,8.06,1.49,17.35,8.63,21.59s17.41,2.56,22.36-4.1c4.93-6.63,4.02-15.77,2.75-23.93-.29-1.87-.64-3.85-1.9-5.26s-3.76-1.87-4.99-.43" style="fill:none; stroke:#000; stroke-miterlimit:10; stroke-width:5px;"/><path d="M1087.93,801.77c-4.93-4.42-11.77-6.64-18.36-5.96-2.71,.28-5.45,1.07-7.56,2.79-4.29,3.5-4.92,9.72-5.16,15.25-.89,20.15-1.07,40.32-.53,60.48" style="fill:none; stroke:#000; stroke-miterlimit:10; stroke-width:5px;"/><path d="M1046.38,830.92h28.01" style="fill:none; stroke:#000; stroke-miterlimit:10; stroke-width:5px;"/></g></g><g><g><path d="M1468.53,799.75c-3.09-7.69-13-11.79-20.62-8.53-5.98,2.56-9.83,8.69-11.31,15.02-1.48,6.33-.95,12.94-.41,19.42l3.61,43.52" style="fill:none; stroke:#000; stroke-miterlimit:10; stroke-width:5px;"/><path d="M1422.89,832.42c9.25,1.2,18.61,1.45,27.91,.75" style="fill:none; stroke:#000; stroke-miterlimit:10; stroke-width:5px;"/><path d="M1480.81,792.56v78.48" style="fill:none; stroke:#000; stroke-miterlimit:10; stroke-width:5px;"/><path d="M1501.95,829.93c.11,9.74-3.87,20.21,.67,28.78,3.5,6.6,11.3,9.84,18.65,9.84,7.35,0,14.42-2.66,21.3-5.29" style="fill:none; stroke:#000; stroke-miterlimit:10; stroke-width:5px;"/><path d="M1538.99,830.88c-.82,.12-.24-1.54,.52-1.2s.81,1.4,.75,2.24c-.88,12.39-.35,24.88,1.56,37.14" style="fill:none; stroke:#000; stroke-miterlimit:10; stroke-width:5px;"/><path d="M1582.52,796.8c-5.67-3.08-12.74-6.14-18.22-2.73-5.03,3.13-5.83,10-6.05,15.93-.75,20.17-.86,40.36-.34,60.54" style="fill:none; stroke:#000; stroke-miterlimit:10; stroke-width:5px;"/><path d="M1626.15,801.39c-2.96-7.09-12.14-8.78-19.83-8.83-3.15-.02-6.62,.19-8.92,2.35-2.53,2.38-2.76,6.25-2.81,9.72-.35,22.34-.42,44.68-.2,67.02" style="fill:none; stroke:#000; stroke-miterlimit:10; stroke-width:5px;"/><path d="M1619.99,820.56c6.49,12.96,15.4,24.71,26.14,34.45l-3.1-1.87" style="fill:none; stroke:#000; stroke-miterlimit:10; stroke-width:5px;"/><path d="M1601.29,905.19c3.66,2.77,7.81,5.68,12.37,5.23,5.92-.59,9.68-6.42,12.52-11.64,12.01-22.05,23.8-45.31,24.83-70.4" style="fill:none; stroke:#000; stroke-miterlimit:10; stroke-width:5px;"/><path d="M1546.52,828.1l27.49-5.42" style="fill:none; stroke:#000; stroke-miterlimit:10; stroke-width:5px;"/><path d="M1585.45,839.32l26.83-2.78" style="fill:none; stroke:#000; stroke-miterlimit:10; stroke-width:5px;"/></g><g><path d="M1695.67,824.77c-1.7,.18-1.59,2.7-.96,4.28,5.49,13.84,11.99,27.27,19.42,40.17,2.25-15.99,6.39-31.72,12.3-46.75,4.16,15.96,21.16,24.88,29.6,39.05-.33-12.76,.21-25.54,1.61-38.23" style="fill:none; stroke:#000; stroke-miterlimit:10; stroke-width:5px;"/><path d="M1799.04,835.06c-4.19-1.09-8.55-1.55-12.87-1.36-2.46,.11-4.98,.44-7.14,1.64-1.95,1.08-3.47,2.81-4.65,4.71-3.27,5.24-4.02,11.98-1.99,17.81,2.03,5.84,6.81,10.65,12.62,12.73,6.82,2.44,15.66,.38,18.92-6.08,.99-1.96,1.41-4.15,1.68-6.33,.55-4.49,.47-9.17-1.2-13.38-1.66-4.21-5.11-7.89-9.51-8.97" style="fill:none; stroke:#000; stroke-miterlimit:10; stroke-width:5px;"/><path d="M1845.68,838.38c-9.8-6.74-25.41-1.7-29.43,9.49-4.02,11.2,4.83,25,16.68,26.03,3.28,.29,6.73-.32,9.39-2.27,5.44-3.99,5.84-11.87,5.23-18.59-.33-3.68-.86-7.49-2.81-10.63s-5.7-5.45-9.31-4.64" style="fill:none; stroke:#000; stroke-miterlimit:10; stroke-width:5px;"/><path d="M1865.69,800.34c1.23,25.06,.6,50.2-1.88,75.17" style="fill:none; stroke:#000; stroke-miterlimit:10; stroke-width:5px;"/></g></g><path d="M452.31,190.49c4.99,5.03,11.38,9.4,18.46,9.32s14.29-6.37,13.06-13.35c-.71-4-3.92-7.2-7.58-8.97s-7.77-2.33-11.8-2.87c-17.26-2.31-28.26-.36-12.14,15.87Z" style="fill:none; stroke:#1e1b1c; stroke-miterlimit:10; stroke-width:10px;"/><path d="M679.82,294.97c4.63-9.73,11.32-18.47,19.49-25.49,2.4-2.06,5.39-4.08,8.46-3.37,1.85,.42,3.36,1.81,4.33,3.44,2.8,4.74,1.05,11.16-2.77,15.12-3.82,3.96-9.25,5.93-14.58,7.27s-10.85,2.22-15.84,4.55" style="fill:none; stroke:#1e1b1c; stroke-miterlimit:10; stroke-width:10px;"/><path d="M1040.3,275.35c-5.37-2.02-11.59,.89-15.17,5.37s-5.11,10.21-6.56,15.76c-1.34,5.12-2.67,10.24-4.01,15.37,12.7-3.85,22.67-15.51,24.51-28.65,.4-2.89-.3-6.77-3.19-7.14" style="fill:none; stroke:#1e1b1c; stroke-miterlimit:10; stroke-width:10px;"/><path d="M252.92,547.39c-2.59,5.62-4.19,13.48,.9,17,3.25,2.24,7.94,1.29,10.94-1.27s4.65-6.36,5.84-10.13c2.78-8.79,5.3-21.43,1.05-29.75-8.8,4.34-14.72,15.44-18.74,24.14Z" style="fill:none; stroke:#1e1b1c; stroke-miterlimit:10; stroke-width:10px;"/><path d="M278.41,749.35c-9.48-1.86-19.57-.4-28.14,4.06-4.95,2.58-9.94,7.96-7.7,13.07,1.6,3.65,6.38,5.01,10.23,3.99s6.96-3.82,9.8-6.61c5.82-5.71,11.53-12.01,19.15-14.92" style="fill:none; stroke:#231f20; stroke-miterlimit:10; stroke-width:10px;"/><path d="M528.65,656.4c-1.14-12.45,4.11-27.9,16.02-31.69,2.41-.77,5.57-.95,6.93,1.18,.74,1.17,.66,2.66,.43,4.03-2.3,13.4-13.68,20.3-25.79,26.48" style="fill:none; stroke:#1e1b1c; stroke-miterlimit:10; stroke-width:10px;"/><path d="M704.88,695.01c-4.48,7.89-4.3,18.2,.44,25.93,2.92,4.75,7.82,8.64,13.39,8.86,5.57,.21,11.34-4.28,11.2-9.85-.12-4.69-3.92-8.35-7.44-11.45-6.39-5.62-13.05-8.04-20.56-12.04" style="fill:none; stroke:#1e1b1c; stroke-miterlimit:10; stroke-width:10px;"/><path d="M923.4,629.19c10.43,.86,20.95-7.93,24.79-17.67,1.92-4.87,2.03-11.45-2.38-14.28-3.44-2.2-8.25-.93-11.22,1.89-2.97,2.81-4.5,6.79-5.81,10.66-2.58,7.65-1.37,12.29-2.91,20.21" style="fill:none; stroke:#1e1b1c; stroke-miterlimit:10; stroke-width:10px;"/><path d="M1277.15,619.63c8.81-7.9,19.15-13.46,29.82-16.44-9.31,6.02-16.88,13.99-22.17,22.87l-7.66-6.43Z" style="fill:#1e1b1c;"/><path d="M1307.26,598.09c-.45,1.16-.84,2.4-.62,3.63,.28,1.57,1.53,2.8,2.88,3.64,5.2,3.21,12.23,1.78,17.16-1.83,4.93-3.61,8.21-8.98,11.33-14.23,2.55-4.29,5.63-8.48,7.76-12.71-14.73-5.47-33.3,7.93-38.52,21.5Z" style="fill:none; stroke:#1e1b1c; stroke-miterlimit:10; stroke-width:10px;"/><path d="M1471.57,619.62c-.45,1.16-.84,2.4-.62,3.63,.28,1.57,1.53,2.8,2.88,3.64,5.2,3.21,12.23,1.78,17.16-1.83,4.93-3.61,8.21-8.98,11.33-14.23,2.55-4.29,5.63-8.48,7.76-12.71-14.73-5.47-33.3,7.93-38.52,21.5Z" style="fill:none; stroke:#1e1b1c; stroke-miterlimit:10; stroke-width:10px;"/><path d="M1455.15,637.56c6-3,11.58-7.82,15.74-14.07-1.05,7.44-4.11,15-9.18,21.62l-6.56-7.55Z" style="fill:#1e1b1c;"/><path d="M1835.59,621.95c-.97-3.75-4.5-6.68-8.36-6.95s-7.77,2.13-9.26,5.7c-3.26,7.8,4.64,17.45,.43,24.78,2.23,1.39,5.01-.63,6.71-2.64,5.39-6.4,9.1-14.19,10.66-22.41" style="fill:none; stroke:#1e1b1c; stroke-miterlimit:10; stroke-width:10px;"/></svg>